<?xml version="1.0" encoding="utf-8"?>
<!-- Generator: Adobe Illustrator 27.5.0, SVG Export Plug-In . SVG Version: 6.00 Build 0)  -->
<svg version="1.1" id="Layer_1" xmlns="http://www.w3.org/2000/svg" xmlns:xlink="http://www.w3.org/1999/xlink" x="0px" y="0px"
	 viewBox="0 0 2740 2000" style="enable-background:new 0 0 2740 2000;" xml:space="preserve">
<rect style="fill:#15171d;" width="2740" height="2000"/>
<g>
	<path style="fill:#15171d;" d="M134.221,1620.523c64.752-137.11,52.611-130.259,22.258-254.083s-84.987-451.63,68.799-720.755
		s350.065-303.524,445.169-271.148c95.104,32.376,171.997,84.987,335.9,4.047s568.602-319.712,868.079-180.091
		S2049.778,571.423,2155,670.574c105.222,99.151,352.781,124.85,429.674,365.646S2534.086,1806.1,2244.726,1838l-2019.448,13.689
		C225.278,1851.689,69.469,1757.634,134.221,1620.523L134.221,1620.523z"/>
	<g>
		<g>
			<g>
				<path style="fill:#FFFFFF;" d="M2205.832,983.568c29.018-0.025,96.987,0.908,155.653,9.204
					c24.271,3.432,46.426-14.861,47.258-39.36c0.341-10.027-2.594-21.88-11.145-35.605c-32.923-52.848-97.873-7.814-98.731,18.022
					c0,0-10.386-39.561-48.969-34.914s-28.261,61.912-28.261,61.912s-12.18-3.3-21.054,2.051
					C2191.856,970.14,2195.642,983.576,2205.832,983.568z"/>
			</g>
		</g>
	</g>
	<g>
		<g>
			<g>
				<path style="fill:#258D8C;" d="M2178.959,1840.578c8.578-8.461,75.489-126.911,121.812-65.994
					c0,0,75.703-171.753,171.565-138.122c0,0,61.12,34.901,16.728,121.835c0,0,147.975-9.307,146.045,82.281H2178.959z"/>
			</g>
			<g>
				<path d="M2407.925,1656.458c-0.223,0-0.443-0.097-0.592-0.283c-0.257-0.322-0.2-0.788,0.126-1.042
					c0.747-0.58,18.486-14.223,34.699-16.142c0.415-0.049,0.787,0.242,0.836,0.648c0.049,0.407-0.245,0.776-0.657,0.825
					c-15.79,1.869-33.768,15.696-33.948,15.835C2408.251,1656.406,2408.087,1656.458,2407.925,1656.458z"/>
			</g>
			<g>
				<path d="M2407.925,1665.061c-0.219,0-0.437-0.094-0.585-0.275c-0.261-0.318-0.212-0.785,0.111-1.043
					c0.121-0.097,12.277-9.727,27.787-14.188c0.397-0.114,0.816,0.111,0.933,0.505c0.116,0.393-0.113,0.805-0.512,0.92
					c-15.209,4.375-27.142,13.822-27.261,13.917C2408.259,1665.006,2408.091,1665.061,2407.925,1665.061z"/>
			</g>
		</g>
		<g>
			
				<ellipse transform="matrix(0.6476 -0.762 0.762 0.6476 -328.8976 2523.4688)" style="fill:#258D8C;" cx="2563.612" cy="1617.298" rx="48.099" ry="25.829"/>
		</g>
		<g>
			
				<ellipse transform="matrix(0.6476 -0.762 0.762 0.6476 -378.4811 2562.9658)" style="fill:#258D8C;" cx="2581.526" cy="1690.651" rx="28.474" ry="15.29"/>
		</g>
	</g>
	<g>
		<g>
			<g>
				<path style="fill:#FFFFFF;" d="M1030.495,635.628c61.625-4.887,211.99-14.641,302.773-2.068
					c13.12,1.817,21.655-13.634,12.958-23.625c-6.271-7.205-17.343-13.199-36.732-13.87c0,0,17.089-84.303-64.359-91.423
					c-83.698-7.317-83.97,81.169-83.97,81.169s-49.345-45.916-72.475,11.752c0,0-51.861-22.087-74.999,6.196
					C1002.793,617.081,1013.336,636.988,1030.495,635.628z"/>
			</g>
		</g>
	</g>
	<g>
		<rect x="1169.926" y="1387.122" style="fill:#49263E;" width="209.686" height="439.304"/>
	</g>
	<g>
		<path style="fill:#49263E;" d="M1906.261,1546.792V944.998c0-28.593-23.18-51.773-51.773-51.773H687.665
			c-28.593,0-51.773,23.18-51.773,51.773v601.793H1906.261z"/>
	</g>
	<g>
		<path style="fill:#3A1F33;" d="M635.892,1546.792v96.436c0,20.059,13.259,36.32,29.615,36.32h1211.14
			c16.356,0,29.615-16.261,29.615-36.32v-96.436H635.892z"/>
	</g>
	<g>
		<g>
			<path style="fill:#E8F2FC;" d="M1876.524,1520.658V946.605c0-15.048-12.638-27.246-28.228-27.246H693.857
				c-15.59,0-28.228,12.199-28.228,27.246v574.053H1876.524z"/>
		</g>
	</g>
	<g>
		<path style="fill:#3A1F33;" d="M1558.405,1838.961c3.56-20.762-10.386-37.593-31.148-37.593h-504.618
			c-20.762,0-40.479,16.831-44.039,37.593v0L1558.405,1838.961z"/>
	</g>
	<g>
		<path style="fill:#21111D;" d="M1876.647,1681.065H665.507c-17.167,0-31.132-16.974-31.132-37.837v-698.23
			c0-29.385,23.906-53.291,53.29-53.291v3.035c-27.71,0-50.255,22.545-50.255,50.256v698.23c0,19.19,12.605,34.802,28.097,34.802
			h1211.14V1681.065z"/>
	</g>
	<g>
		
			<rect x="1813.9" y="1591.525" transform="matrix(0.583 -0.8125 0.8125 0.583 -527.5648 2158.2104)" style="fill:#21111D;" width="49.563" height="3.035"/>
	</g>
	<g>
		
			<rect x="1814.344" y="1611.102" transform="matrix(0.5937 -0.8047 0.8047 0.5937 -550.6099 2134.7122)" style="fill:#21111D;" width="48.675" height="3.035"/>
	</g>
	<g>
		
			<rect x="1213.016" y="1700.028" transform="matrix(0.4962 -0.8682 0.8682 0.4962 -858.8648 1923.0707)" style="fill:#21111D;" width="28.994" height="3.035"/>
	</g>
	<g>
		
			<rect x="1216.382" y="1715.988" transform="matrix(0.506 -0.8625 0.8625 0.506 -874.1622 1908.719)" style="fill:#21111D;" width="25.708" height="3.034"/>
	</g>
	<g>
		<path style="fill:#FE9F73;" d="M1230.195,889.558c0,0,9.713-36.293,18.586-40.102c8.873-3.809,18.773,2.565,18.773,2.565
			s9.494-12.957,15.961-11.723c6.467,1.234,8.041,7.023,8.041,7.023s11.439,1.213,12.594,10.611c0,0,8.994,2.179,8.881,9.562
			c0,0,4.638,2.104,4.34,11.048c0,0-15.436,30.181-38.119,40.87C1256.568,930.099,1230.195,889.558,1230.195,889.558z"/>
	</g>
	<g>
		<path style="fill:#3AA1C9;" d="M1024.45,1520.658l2.696-256.91l-5.78-32.999l-140.18,50.31c0,0,4.317,108.598,13.41,239.599
			H1024.45z"/>
	</g>
	<g>
		<path style="fill:#4CB7D8;" d="M916.806,1520.658l15.753-181.22l26.643-132.263l-181.229,77.101c0,0-1.295,106.7,0.908,236.382
			H916.806z"/>
	</g>
	<g>
		<polygon style="fill:#683D46;" points="1191.347,707.135 1338.784,952.742 1326.513,962.068 1209.76,745.616 		"/>
	</g>
	<g>
		<path style="fill:#FE9F73;" d="M1266.466,851.242c0,0,6.521-6.736,10.438-8.742c3.917-2.006,27.245,40.91,27.245,40.91
			l3.379,10.605c0,0-2.987,5.608-4.92,5.378c-1.933-0.23-7.777-4.694-7.777-4.694l-1.519-5.854l-2.354-0.657l-3.07-2.834
			l-1.524-4.644l-3.267,1.473l-4.647-1.841l-2.144-4.329l-0.92-0.419l-13.84-22.248L1266.466,851.242z"/>
	</g>
	<g>
		<path style="fill:#F07162;" d="M1274.971,876.39c-2.063,0-4.434-1.422-6.895-2.898c-1.719-1.032-3.499-2.099-5.335-2.823
			c-5.442-2.146-7.932-1.212-7.953-1.202c-0.387,0.154-0.828-0.031-0.986-0.416c-0.159-0.384,0.016-0.821,0.399-0.984
			c0.119-0.051,2.982-1.218,9.097,1.189c1.953,0.77,3.787,1.87,5.559,2.934c3.855,2.311,6.299,3.635,7.944,1.818
			c1.458-1.615,2.097-3.528,1.899-5.686c-0.422-4.598-4.762-10.468-11.607-15.699c-8.424-6.44-15.833-3.259-16.147-3.121
			c-0.376,0.169-0.831-0.002-1.002-0.383c-0.171-0.382-0.001-0.83,0.381-1.002c0.344-0.155,8.519-3.71,17.69,3.3
			c7.283,5.567,11.729,11.679,12.197,16.767c0.239,2.597-0.529,4.899-2.284,6.841C1277.047,876.001,1276.051,876.39,1274.971,876.39
			z"/>
	</g>
	<g>
		<path style="fill:#F07162;" d="M1277.542,863.479c-0.182,0-0.365-0.065-0.511-0.198c-0.31-0.282-0.332-0.762-0.05-1.071
			l14.013-15.4c0.283-0.309,0.762-0.332,1.073-0.05c0.31,0.282,0.332,0.762,0.05,1.072l-14.013,15.4
			C1277.954,863.395,1277.748,863.479,1277.542,863.479z"/>
	</g>
	<g>
		<path style="fill:#F07162;" d="M1292.883,889.437c-1.118,0-2.128-0.356-3.018-1.064c-1.54-0.858-4.4-3.69-3.492-7.783
			c0.09-0.407,0.489-0.664,0.906-0.576c0.409,0.091,0.667,0.496,0.577,0.906c-0.889,4.005,2.703,6.113,2.857,6.201
			c0.917,0.719,1.86,0.935,2.976,0.72c7.518-1.432,18.572-20.532,18.683-20.724c0.21-0.365,0.676-0.488,1.036-0.28
			c0.363,0.209,0.489,0.673,0.28,1.036c-0.467,0.812-11.517,19.897-19.716,21.459
			C1293.599,889.402,1293.236,889.437,1292.883,889.437z"/>
	</g>
	<g>
		<path style="fill:#F07162;" d="M1282.71,882.758c-1.67,0-3.108-0.476-4.287-1.421c-2.625-2.103-2.958-5.754-2.97-5.909
			c-0.036-0.417,0.274-0.783,0.691-0.818c0.402-0.044,0.786,0.273,0.821,0.691c0.003,0.031,0.301,3.17,2.414,4.858
			c1.146,0.913,2.642,1.255,4.458,1.001c5.521-0.756,16.059-17.295,19.653-23.604c0.209-0.365,0.673-0.49,1.035-0.284
			c0.365,0.208,0.492,0.671,0.284,1.035c-0.542,0.953-13.38,23.345-20.768,24.357
			C1283.583,882.726,1283.139,882.758,1282.71,882.758z"/>
	</g>
	<g>
		<path style="fill:#E2F2F1;" d="M1215.714,881.214l5.474-6.873c0,0,48.588,13.661,66.178,53.496l-7.697,10.374
			C1279.67,938.211,1244.137,893.872,1215.714,881.214z"/>
	</g>
	<g>
		<path style="fill:#d34e4e;" d="M1042.261,1300.259l0.891-1.162l-4.662-261.437c0,0,85.987,57.671,111.756,58.776
			c25.769,1.104,132.315-157.044,132.315-157.044c-22.456-51.539-69.733-58.682-69.733-58.682l-87.984,96.451l-103.077-93.506
			c-13.744-8.344-119.398-10.149-119.398-10.149s-120.257-2.735-134.001,5.609c-13.744,8.344-64.301,145.781-72.154,208.118
			c-7.854,62.337,0,102.709,47.612,110.072l17.32,0.368l1.332,102.587C762.48,1300.259,858.44,1321.856,1042.261,1300.259
			L1042.261,1300.259z"/>
	</g>
	<g>
		<g>
			<path style="fill:#49263E;" d="M1001.335,1215.957H896.932c-6.609,0-11.966-5.357-11.966-11.966v-138.414
				c0-6.609,5.357-11.966,11.966-11.966h104.403c6.609,0,11.966,5.357,11.966,11.966v138.414
				C1013.302,1210.599,1007.944,1215.957,1001.335,1215.957z"/>
		</g>
		<g>
			<path style="fill:#E2F2F1;" d="M981.711,1047.474h-59.778c-3.389,0-6.136,2.747-6.136,6.136l0,0h72.049l0,0
				C987.846,1050.221,985.099,1047.474,981.711,1047.474z"/>
		</g>
	</g>
	<g>
		<g>
			<g>
				<g>
					<g>
						<path style="fill:#FE9F73;" d="M1016.372,1137.197c13.864-12.215-0.662-14.271-0.662-14.271
							c6.768-7.321,5.194-10.736,2.708-12.311c-1.82-1.153-4.106-1.28-6.114-0.5c-6.375,2.476-25.811,10.101-37.685,15.588
							c-8.443-0.598-5.75-14.83-1.974-22.122c1.946-3.757,2.08-9.963-7.082-3.713c-7.486,5.107-18.735,21.923-18.735,21.923
							l-47.051-4.522l7.01,64.839c0,0,53.71-0.751,61.803-0.809c8.093-0.057,35.195-9.285,43.38-16.411
							c14.853-12.929,5.51-13.589,5.51-13.589C1031.651,1136.425,1016.372,1137.197,1016.372,1137.197z"/>
					</g>
				</g>
			</g>
		</g>
		<g>
			<g>
				<g>
					<g>
						<g>
							<path style="fill:#F07162;" d="M998.73,1133.63c-0.409,0.032-0.81-0.198-0.975-0.599c-0.205-0.497,0.032-1.065,0.528-1.27
								c6.964-2.873,16.779-9.57,16.877-9.638c0.443-0.302,1.049-0.189,1.353,0.253c0.304,0.444,0.19,1.05-0.253,1.353
								c-0.409,0.279-10.081,6.879-17.235,9.83C998.928,1133.6,998.829,1133.623,998.73,1133.63z"/>
						</g>
					</g>
				</g>
			</g>
		</g>
		<g>
			<g>
				<g>
					<g>
						<g>
							<path style="fill:#F07162;" d="M999.694,1145.917c-0.458,0.036-0.891-0.258-1.015-0.718
								c-0.139-0.519,0.169-1.052,0.688-1.192c8.853-2.378,16.375-7.557,16.45-7.609c0.444-0.307,1.049-0.196,1.354,0.243
								c0.306,0.442,0.198,1.048-0.243,1.354c-0.317,0.22-7.865,5.422-17.057,7.891
								C999.812,1145.902,999.753,1145.912,999.694,1145.917z"/>
						</g>
					</g>
				</g>
			</g>
		</g>
		<g>
			<g>
				<g>
					<g>
						<g>
							<path style="fill:#F07162;" d="M1002.95,1159.757c-0.447,0.035-0.873-0.244-1.007-0.691
								c-0.154-0.514,0.138-1.056,0.653-1.211c7.583-2.273,14.231-7.279,14.297-7.33c0.427-0.326,1.038-0.241,1.363,0.187
								c0.324,0.427,0.241,1.038-0.187,1.363c-0.281,0.214-6.997,5.27-14.915,7.644
								C1003.086,1159.74,1003.018,1159.752,1002.95,1159.757z"/>
						</g>
					</g>
				</g>
			</g>
		</g>
	</g>
	<g>
		<polygon style="fill:#21111D;" points="787.511,1105.08 785.551,1102.762 804.704,1086.569 812.015,997.774 815.041,998.023 
			807.626,1088.075 		"/>
	</g>
	<g>
		<path style="fill:#21111D;" d="M761.115,1199.191l-17.518-0.385c-23.369-3.613-38.35-15.193-45.798-35.396
			c-6.463-17.528-7.444-41.794-3.089-76.366l3.011,0.379c-8.878,70.463,4.52,101.869,46.24,108.368l17.219,0.365L761.115,1199.191z"
			/>
	</g>
	<g>
		<path style="fill:#E2F2F1;" d="M929.487,1101.795h9.451c0,0,10.062,64.709-3.681,94.406h-11.752
			C923.505,1196.2,937.215,1135.5,929.487,1101.795z"/>
	</g>
	<g>
		<path style="fill:#EF3A4C;" d="M880.062,1092.055l47.342,3.032c0,0,9.571,30.187-1.932,91.392
			c-1.117,5.944-3.468,16.103-3.468,16.103s-48.072,3.832-55.617-11.783c-4.738-9.805,5.621-52.161,5.621-52.161L880.062,1092.055z"
			/>
	</g>
	<g>
		<path style="fill:#21111D;" d="M923.173,1204.136l-162.071-4.946l0.092-3.035l159.629,4.872
			c2.281-9.445,16.898-73.006,5.503-104.488l-120.257-7.702l0.193-3.029l122.207,7.827l0.35,0.906
			c13.276,34.415-4.578,105.411-5.344,108.417L923.173,1204.136z"/>
	</g>
	<g>
		<path style="fill:#21111D;" d="M1125.912,1002.959l-2.518-25.067l-99.815-90.546c-7.315-6.636-21.536-6.724-21.678-6.724v-3.035
			c0,0,0,0,0.001,0c0.646,0,15.53,0.087,23.716,7.511l100.68,91.33l2.634,26.227L1125.912,1002.959z"/>
	</g>
	<g>
		<path style="fill:#21111D;" d="M1125.968,978.183l-2.244-2.045l88.538-97.058l0.812,0.133c0.47,0.076,47.274,8.261,70.866,59.545
			l-2.757,1.269c-21.221-46.131-61.652-56.355-67.808-57.662L1125.968,978.183z"/>
	</g>
	<g>
		<path style="fill:#E2F2F1;" d="M959.427,875.587c-29.05-1.603-57.057-2.082-57.057-2.082s-23.282-0.529-50.527-0.412
			c-0.001,0.16-0.012,0.317-0.012,0.477c0,29.726,24.098,53.823,53.823,53.823C934.704,927.394,958.365,904.377,959.427,875.587z"/>
	</g>
	<g>
		<path style="fill:#21111D;" d="M927.356,1310.788c-0.904,0-1.789-0.005-2.662-0.013l0.03-3.035
			c37.945,0.405,105.604-7.572,116.002-8.823l-3.761-286.392l3.035-0.04l3.797,289.114l-1.349,0.166
			C1041.702,1301.857,968.988,1310.786,927.356,1310.788z"/>
	</g>
	<g>
		<path style="fill:#21111D;" d="M873.551,930.223c-15.283-9.525-26.378-24.275-31.242-41.53l2.923-0.824
			c4.657,16.527,15.284,30.654,29.926,39.778L873.551,930.223z"/>
	</g>
	<g>
		<g>
			<path style="fill:#FE9F73;" d="M885.215,764.523c0,0,21.442-9.119,40.478-2.576c11.023,3.789,18.345,14.269,18.345,25.925v11.398
				l-58.675-25.056c0,0-9.28,4.389-8.536,3.056C877.572,775.938,885.215,764.523,885.215,764.523z"/>
		</g>
		<g>
			<g>
				<g>
					<g>
						<path style="fill:#FE9F73;" d="M944.033,786.59v48.069c0,0,0.716,17.175-14.313,19.322l2.806,22.915
							c1.043,8.518-4.05,16.672-12.231,19.263c-4,1.267-8.775,2.191-14.19,2.191c-17.175,0-26.478-12.881-27.909-19.322
							c-1.431-6.441,2.862-37.212,2.862-37.212l-0.523-15.121l1.954-58.588L944.033,786.59z"/>
					</g>
				</g>
			</g>
			<g>
				<g>
					<g>
						<path style="fill:#21111D;" d="M902.566,809.255c-0.178,0-0.357-0.066-0.496-0.2c-0.285-0.273-0.294-0.726-0.021-1.011
							c0.098-0.103,9.941-10.171,18.936-2.924c0.308,0.247,0.356,0.698,0.108,1.006c-0.248,0.309-0.698,0.357-1.006,0.108
							c-7.97-6.42-16.64,2.422-17.005,2.801C902.942,809.181,902.754,809.255,902.566,809.255z"/>
					</g>
				</g>
			</g>
			<g>
				<g>
					<g>
						<path style="fill:#21111D;" d="M932.066,804.961c-0.2,0-0.4-0.084-0.541-0.247c-0.259-0.298-0.227-0.75,0.072-1.009
							c0.289-0.25,7.115-6.088,11.431-2.387c0.3,0.257,0.335,0.709,0.078,1.008c-0.257,0.301-0.709,0.335-1.009,0.078
							c-3.381-2.899-9.5,2.33-9.562,2.383C932.399,804.904,932.232,804.961,932.066,804.961z"/>
					</g>
				</g>
			</g>
			<g>
				<g>
					<g>
						<path d="M917.038,812.147c0,1.186-0.961,2.147-2.147,2.147c-1.186,0-2.147-0.961-2.147-2.147s0.961-2.147,2.147-2.147
							C916.077,810,917.038,810.962,917.038,812.147z"/>
					</g>
				</g>
			</g>
			<g>
				<g>
					<g>
						<path d="M939.858,810c0,1.186-0.961,2.147-2.147,2.147c-1.186,0-2.147-0.961-2.147-2.147c0-1.186,0.961-2.147,2.147-2.147
							C938.897,807.854,939.858,808.815,939.858,810z"/>
					</g>
				</g>
			</g>
			<g>
				<g>
					<g>
						<path style="fill:#21111D;" d="M885.215,763.773c0,0-18.179-0.873-22.791,15.03c-4.612,15.903,3.248,24.31,3.407,29.051
							c0.159,4.741-3.056,36.706,19.384,34.32l6.06-52.797l-7.81-21.02L885.215,763.773z"/>
					</g>
				</g>
			</g>
			<g>
				<g>
					<g>
						
							<ellipse transform="matrix(0.7071 -0.7071 0.7071 0.7071 -314.12 864.4514)" style="fill:#FE9F73;" cx="886.425" cy="811.402" rx="12.881" ry="12.881"/>
					</g>
				</g>
			</g>
			<g>
				<g>
					<g>
						<path style="fill:#F07162;" d="M885.472,819.296c-2.676,0-4.463-2.011-5.052-4.021c-0.696-2.378,0.102-4.687,2.032-5.886
							c2.853-1.771,5.439-0.635,6.764,0.237c-0.556-1.462-1.428-2.526-2.6-3.171c-2.538-1.397-5.686-0.379-5.717-0.369
							c-0.187,0.063-0.39-0.039-0.452-0.227c-0.062-0.187,0.039-0.389,0.226-0.452c0.14-0.047,3.468-1.127,6.283,0.419
							c1.625,0.892,2.731,2.471,3.286,4.693l0.312,1.246l-0.911-0.906c-0.129-0.129-3.192-3.107-6.812-0.861
							c-2.004,1.244-2.181,3.512-1.723,5.076c0.476,1.624,1.902,3.507,4.362,3.507c0.025,0,0.048-0.002,0.074-0.001
							c0.195,0,0.355,0.157,0.358,0.353c0.003,0.197-0.155,0.36-0.353,0.363C885.523,819.295,885.497,819.296,885.472,819.296z"/>
					</g>
				</g>
			</g>
			<g>
				<g>
					<g>
						<path style="fill:#F07162;" d="M894.88,839.391c0,0,1.008,28.747,36.91,31.492l-2.07-16.901
							C929.72,853.982,906.436,858.66,894.88,839.391z"/>
					</g>
				</g>
			</g>
			<g>
				<g>
					<path style="fill:#21111D;" d="M946.525,826.576c0,0,4.679,34.409-18.169,35.632c-32.694,1.749-35.86-16.91-37.803-32.177
						l-0.328-31.51l1.05-9.144v0c2.311,2.613,3.723,5.893,4.034,9.367c0.677,7.556,2.351,27.913,4.237,28.814
						C902.21,828.83,941.436,823.262,946.525,826.576z"/>
				</g>
			</g>
			<g>
				<g>
					<g>
						<path style="fill:#F07162;" d="M924.611,826.629c-0.15,0-0.29-0.095-0.34-0.245c-0.062-0.188,0.04-0.39,0.227-0.452
							l7.173-2.372l-2.266-16.881c-0.026-0.196,0.111-0.376,0.307-0.402c0.198-0.031,0.376,0.111,0.402,0.307l2.345,17.469
							l-7.737,2.558C924.686,826.623,924.648,826.629,924.611,826.629z"/>
					</g>
				</g>
			</g>
			<g>
				<polygon style="fill:#FE9F73;" points="880.526,845.815 883.021,821.583 889.037,822.25 889.037,846.514 				"/>
			</g>
		</g>
		<g>
			<path style="fill:#21111D;" d="M888.578,763.295c0,0-4.214,10.057,2.697,26.831c6.912,16.774-17.732-6.256-17.732-6.256
				S875.254,759.319,888.578,763.295z"/>
		</g>
		<g>
			<g>
				<path style="fill:#F07162;" d="M916.287,833.977c5.783,7.475,13.684,3.93,13.764,3.893c0.249-0.115,0.358-0.411,0.242-0.66
					c-0.116-0.249-0.411-0.358-0.66-0.243c-0.299,0.138-7.271,3.237-12.555-3.594c-0.096-0.124-0.191-0.251-0.286-0.382
					c-0.147-0.208-0.472-0.272-0.695-0.11c-0.222,0.162-0.272,0.473-0.11,0.695C916.085,833.713,916.186,833.847,916.287,833.977z"
					/>
			</g>
		</g>
	</g>
	<g>
		<path style="fill:#F07162;" d="M1303.493,899.943c-0.043,0-0.086-0.004-0.129-0.011c-4.171-0.712-7.136-2.341-8.814-4.84
			c-2.054-3.063-1.368-6.278-1.338-6.413c0.092-0.408,0.49-0.668,0.904-0.574c0.408,0.09,0.667,0.493,0.578,0.902
			c-0.006,0.028-0.568,2.747,1.131,5.259c1.439,2.13,4.062,3.533,7.794,4.171c0.413,0.07,0.691,0.462,0.621,0.875
			C1304.176,899.682,1303.856,899.943,1303.493,899.943z"/>
	</g>
	<g>
		<path style="fill:#21111D;" d="M1878.042,1522.176H665.628v-3.035h1209.378V946.605c0-14.187-11.982-25.729-26.71-25.729v-3.035
			c16.402,0,29.745,12.904,29.745,28.764V1522.176z"/>
	</g>
	<g>
		<path style="fill:#21111D;" d="M891.275,790.127c0,0,54.703-3.241,58.075-16.057s-9.493-13.153-9.493-13.153
			s2.41-18.211-14.115-12.815c-16.525,5.396-47.139,4.69-55.747,20.005C861.389,783.422,891.275,790.127,891.275,790.127z"/>
	</g>
	<g>
		<path style="fill:#F75553;" d="M1095.092,1336.095l-13.184,9.643c-2.029,1.484-2.471,4.332-0.986,6.363
			c0.891,1.218,2.275,1.864,3.677,1.864c0.934,0,1.875-0.286,2.685-0.879l10.53-7.702l9.262,31.599
			c0.582,1.986,2.398,3.274,4.368,3.274c0.424,0,0.855-0.059,1.282-0.185c2.413-0.707,3.796-3.237,3.089-5.65l-10.186-34.753
			l13.983-10.228l16.548,21.602c1.529,1.998,4.388,2.376,6.383,0.846c1.996-1.529,2.374-4.387,0.846-6.383l-16.426-21.442
			l8.887-6.501c2.029-1.484,2.47-4.332,0.985-6.362c-1.484-2.029-4.335-2.468-6.362-0.986l-9.049,6.619l-30.725-40.107
			c-1.921-2.508-5.232-3.263-8.049-1.832c-2.819,1.429-4.165,4.545-3.275,7.575L1095.092,1336.095z M1114.072,1322.212
			l-11.167,8.168l-10.798-36.84L1114.072,1322.212z"/>
	</g>
	<g>
		<g>
			<path style="fill:#258D8C;" d="M1144.033,1245.299c3.21,0,4.067-1.848,6.902-7.975c0.372-0.804,0.734-1.573,1.09-2.325
				l7.353,25.193c-0.095,0.263-0.19,0.527-0.286,0.789c-0.15,0.3-0.266,0.61-0.345,0.93c-1.821,4.916-3.739,9.643-5.612,13.862
				c-1.02,2.297,0.016,4.987,2.315,6.008c0.6,0.267,1.227,0.393,1.844,0.393c1.746,0,3.41-1.009,4.164-2.706
				c0.496-1.118,1.23-2.802,2.111-4.913l10.716,36.716c0.581,1.987,2.396,3.278,4.369,3.278c0.422,0,0.851-0.059,1.277-0.184
				c2.413-0.704,3.799-3.232,3.095-5.647l-0.958-3.283c8.45-4.338,29.19-16.388,35.125-32.815
				c2.551-7.057,2.153-14.071-1.177-20.844c-4.43-9.006-10.884-11.759-15.519-12.482c-9.46-1.474-19.797,3.86-27.707,9.491
				c4.457-15.256,7.191-31.861,1.483-39.903c-3.172-4.471-6.948-4.834-8.914-4.652c-4.045,0.372-7.754,3.564-11.229,8.277
				c-1.123-0.929-2.671-1.304-4.181-0.864c-2.413,0.704-3.799,3.232-3.094,5.647l1.402,4.803c-1.918,3.609-3.774,7.492-5.586,11.404
				c-0.74,1.598-1.565,3.379-1.977,4.151c-0.755,0.812-1.215,1.9-1.215,3.096C1139.48,1243.261,1141.518,1245.299,1144.033,1245.299
				z M1199.102,1248.294c3.686,0.576,6.546,3.031,8.744,7.502c2.227,4.528,2.485,9.015,0.79,13.718
				c-4.495,12.465-20.974,22.595-29.173,26.991l-9.773-33.485C1176.771,1256.592,1189.833,1246.824,1199.102,1248.294z
				 M1166.09,1213.314c0.12,0.086,0.385,0.311,0.76,0.839c3.258,4.59,1.405,17.001-2.475,30.661l-6.307-21.609
				C1162.524,1215.38,1164.906,1213.539,1166.09,1213.314z"/>
		</g>
	</g>
	<g>
		<path style="fill:#397FA1;" d="M1280.659,1297.329c4.947,0,10.561-0.593,16.929-1.93c2.46-0.516,4.037-2.93,3.52-5.39
			c-0.514-2.46-2.918-4.04-5.39-3.52c-21.267,4.464-34.767,0.359-40.116-12.202c-8.845-20.764,6.09-56.029,16.636-63.22
			c4.52-3.081,8.774-4.139,12.639-3.152c7.29,1.867,11.668,10.262,11.755,10.434c1.129,2.239,3.861,3.144,6.103,2.025
			c2.248-1.125,3.16-3.859,2.036-6.109c-0.249-0.497-6.214-12.2-17.562-15.151c-6.531-1.701-13.298-0.208-20.103,4.431
			c-14.666,10.001-30.026,50.496-19.883,74.312C1251.258,1287.325,1260.33,1297.331,1280.659,1297.329z"/>
	</g>
	<g>
		<path style="fill:#61A3C5;" d="M1211.712,1363.91l-96.73,66.399l-3.948,39.485l-19.898-28.005l-24.402,17.506
			c-2.042,1.466-2.51,4.31-1.045,6.354c1.466,2.042,4.311,2.512,6.354,1.045l16.968-12.173l28.666,40.344l5.946-59.442
			l93.245-64.004c2.072-1.423,2.6-4.258,1.177-6.331C1216.62,1363.015,1213.789,1362.489,1211.712,1363.91z"/>
	</g>
	<g>
		<path style="fill:#F75553;" d="M1346.962,1393.006c-0.947-2.33-3.603-3.45-5.933-2.503l-84.087,34.175
			c-2.328,0.947-3.45,3.603-2.503,5.933c0.719,1.768,2.422,2.84,4.219,2.84c0.571,0,1.151-0.108,1.713-0.336l84.087-34.175
			C1346.787,1397.991,1347.909,1395.336,1346.962,1393.006z"/>
	</g>
	<g>
		<circle style="fill:#F75553;" cx="1294.573" cy="1388.875" r="7.644"/>
	</g>
	<g>
		<path style="fill:#F75553;" d="M1309.861,1428.896c-4.222,0-7.644,3.422-7.644,7.644c0,4.222,3.422,7.644,7.644,7.644
			c4.222,0,7.644-3.423,7.644-7.644C1317.505,1432.318,1314.083,1428.896,1309.861,1428.896z"/>
	</g>
	<g>
		<path style="fill:#FE9F73;" d="M1269.887,1168.447c0.883,0.851,2.022,1.273,3.158,1.273c1.193,0,2.386-0.467,3.28-1.395
			l23.025-23.911l23.025,23.911c0.894,0.928,2.087,1.395,3.28,1.395c1.137,0,2.275-0.422,3.158-1.273
			c1.811-1.744,1.866-4.627,0.121-6.438l-23.264-24.159l23.264-24.159c1.744-1.811,1.69-4.694-0.121-6.438
			c-1.811-1.743-4.692-1.691-6.438,0.122l-23.025,23.911l-23.025-23.911c-1.746-1.813-4.627-1.865-6.438-0.122
			c-1.811,1.744-1.866,4.627-0.122,6.438l23.264,24.159l-23.264,24.159C1268.021,1163.82,1268.076,1166.703,1269.887,1168.447z"/>
	</g>
	
	<g>
		<g>
			<path style="fill:#F99247;" d="M584.672,1756.599H156.361c-5.337,0-9.663,4.326-9.663,9.663v72.698h437.974V1756.599z"/>
		</g>
		<g>
			<rect x="181.097" y="1756.599" style="fill:#FECC86;" width="5.396" height="41.181"/>
		</g>
		<g>
			<rect x="237.418" y="1756.599" style="fill:#FECC86;" width="5.396" height="41.181"/>
		</g>
		<g>
			<rect x="209.426" y="1756.599" style="fill:#FECC86;" width="5.396" height="25.003"/>
		</g>
		<g>
			<rect x="298.966" y="1756.599" style="fill:#FECC86;" width="5.396" height="41.181"/>
		</g>
		<g>
			<rect x="270.974" y="1756.599" style="fill:#FECC86;" width="5.396" height="25.003"/>
		</g>
		<g>
			<rect x="360.514" y="1756.599" style="fill:#FECC86;" width="5.396" height="41.181"/>
		</g>
		<g>
			<rect x="332.522" y="1756.599" style="fill:#FECC86;" width="5.396" height="25.003"/>
		</g>
		<g>
			<rect x="422.062" y="1756.599" style="fill:#FECC86;" width="5.396" height="41.181"/>
		</g>
		<g>
			<rect x="394.07" y="1756.599" style="fill:#FECC86;" width="5.396" height="25.003"/>
		</g>
		<g>
			<rect x="483.61" y="1756.599" style="fill:#FECC86;" width="5.396" height="41.181"/>
		</g>
		<g>
			<rect x="455.618" y="1756.599" style="fill:#FECC86;" width="5.396" height="25.003"/>
		</g>
	</g>
	<g>
		<g>
			<path style="fill:#FECC86;" d="M690.229,1297.916l0.286,540.653l376.753,0.392L690.229,1297.916z M743.047,1478.575
				l205.207,297.278l-205.516-0.214L743.047,1478.575z"/>
		</g>
		<g>
			
				<rect x="712.862" y="1344.819" transform="matrix(0.5712 0.8208 -0.8208 0.5712 1422.6615 -4.1291)" style="fill:#F99247;" width="4.841" height="29.332"/>
		</g>
		<g>
			
				<rect x="751.925" y="1400.767" transform="matrix(0.5711 0.8209 -0.8209 0.5711 1485.233 -12.2563)" style="fill:#F99247;" width="4.841" height="28.966"/>
		</g>
		<g>
			
				<rect x="739.241" y="1377.145" transform="matrix(0.5711 0.8209 -0.8209 0.5711 1454.4626 -15.0785)" style="fill:#F99247;" width="4.841" height="14.492"/>
		</g>
		<g>
			
				<rect x="791.54" y="1457.633" transform="matrix(0.5711 0.8209 -0.8209 0.5711 1548.9178 -20.3782)" style="fill:#F99247;" width="4.841" height="29.016"/>
		</g>
		<g>
			
				<rect x="778.856" y="1434.011" transform="matrix(0.5711 0.8209 -0.8209 0.5711 1518.1476 -23.2005)" style="fill:#F99247;" width="4.841" height="14.543"/>
		</g>
		<g>
			
				<rect x="831.156" y="1514.499" transform="matrix(0.5711 0.8209 -0.8209 0.5711 1612.6072 -28.4981)" style="fill:#F99247;" width="4.841" height="29.067"/>
		</g>
		<g>
			
				<rect x="818.471" y="1490.878" transform="matrix(0.5711 0.8209 -0.8209 0.5711 1581.837 -31.32)" style="fill:#F99247;" width="4.841" height="14.593"/>
		</g>
		<g>
			
				<rect x="870.771" y="1571.366" transform="matrix(0.5711 0.8209 -0.8209 0.5711 1676.2966 -36.6175)" style="fill:#F99247;" width="4.841" height="29.117"/>
		</g>
		<g>
			
				<rect x="858.096" y="1547.727" transform="matrix(0.5711 0.8209 -0.8209 0.5711 1645.5251 -39.4498)" style="fill:#F99247;" width="4.841" height="14.666"/>
		</g>
		<g>
			
				<rect x="910.386" y="1628.232" transform="matrix(0.5711 0.8209 -0.8209 0.5711 1739.986 -44.7372)" style="fill:#F99247;" width="4.841" height="29.168"/>
		</g>
		<g>
			
				<rect x="897.69" y="1604.633" transform="matrix(0.5711 0.8209 -0.8209 0.5711 1709.2174 -47.5462)" style="fill:#F99247;" width="4.841" height="14.666"/>
		</g>
		<g>
			
				<rect x="950.001" y="1685.099" transform="matrix(0.5711 0.8208 -0.8208 0.5711 1803.6548 -52.8667)" style="fill:#F99247;" width="4.841" height="29.218"/>
		</g>
		<g>
			
				<rect x="937.316" y="1661.478" transform="matrix(0.5711 0.8209 -0.8209 0.5711 1772.9053 -55.6781)" style="fill:#F99247;" width="4.841" height="14.743"/>
		</g>
		<g>
			
				<rect x="989.617" y="1741.965" transform="matrix(0.5711 0.8208 -0.8208 0.5711 1867.3434 -60.9865)" style="fill:#F99247;" width="4.841" height="29.268"/>
		</g>
		<g>
			
				<rect x="976.932" y="1718.345" transform="matrix(0.5711 0.8208 -0.8208 0.5711 1836.5736 -63.8077)" style="fill:#F99247;" width="4.841" height="14.793"/>
		</g>
		<g>
			
				<rect x="1029.237" y="1798.821" transform="matrix(0.5711 0.8208 -0.8208 0.5711 1931.0313 -69.1125)" style="fill:#F99247;" width="4.841" height="29.332"/>
		</g>
		<g>
			
				<rect x="1016.547" y="1775.211" transform="matrix(0.5711 0.8208 -0.8208 0.5711 1900.2622 -71.9277)" style="fill:#F99247;" width="4.841" height="14.844"/>
		</g>
	</g>
	<g>
		<g>
			<g>
				<path style="fill:#21111D;" d="M637.739,1534.028c-3.216,0-6.018-2.374-6.469-5.649c-0.081-0.591-8.486-59.631-39.265-107.899
					c-1.942-3.044-1.047-7.085,1.997-9.028c3.045-1.941,7.087-1.047,9.028,1.998c32.362,50.748,40.849,110.628,41.195,113.153
					c0.49,3.575-2.012,6.872-5.588,7.362C638.334,1534.007,638.035,1534.028,637.739,1534.028z"/>
			</g>
		</g>
		<g>
			<path style="fill:#FF424D;" d="M814.471,1529.563c-37.774-66.831-95.889-61.02-127.852-43.586
				c-25.908,14.131-48.948,17.762-56.749,18.631c-7.802-0.869-30.842-4.5-56.749-18.631
				c-31.963-17.435-90.077-23.246-127.852,43.586c-37.774,66.832,24.699,302.195,116.229,312.365c0,0,27.604,0,37.774,0
				c4.027,0,9.204-0.227,15.057-0.412c0.344,0.3,0.71,0.445,1.1,0.412c4.868-0.406,9.731-0.58,14.441-0.628
				c4.71,0.047,9.573,0.222,14.441,0.628c0.39,0.032,0.755-0.112,1.1-0.412c5.854,0.185,11.031,0.412,15.057,0.412
				c10.17,0,37.774,0,37.774,0C789.772,1831.758,852.245,1596.395,814.471,1529.563z"/>
		</g>
		<g>
			<path style="fill:#21111D;" d="M474.055,1543.316c-0.204,0-0.413-0.042-0.613-0.13c-0.766-0.339-1.112-1.234-0.772-2.001
				c0.141-0.32,14.515-31.987,49.543-39.888c0.815-0.185,1.63,0.329,1.814,1.147c0.184,0.817-0.329,1.629-1.147,1.814
				c-33.502,7.556-47.3,37.85-47.436,38.156C475.193,1542.979,474.638,1543.316,474.055,1543.316z"/>
		</g>
		<g>
			<path style="fill:#21111D;" d="M482.586,1557.443c-0.204,0-0.413-0.042-0.613-0.13c-0.766-0.339-1.112-1.234-0.772-2.001
				c0.141-0.32,14.515-31.987,49.544-39.886c0.814-0.182,1.63,0.329,1.814,1.147c0.184,0.817-0.329,1.63-1.147,1.814
				c-33.502,7.556-47.3,37.849-47.436,38.154C483.724,1557.106,483.168,1557.443,482.586,1557.443z"/>
		</g>
		<g>
			<path style="fill:#EF3A4C;" d="M755.349,1477.914c-62.588,86.536-183.263,235.69-288.178,262
				c22.906,54.174,56.075,97.764,94.327,102.014c0,0,27.604,0,37.774,0c4.027,0,9.204-0.227,15.057-0.412
				c0.344,0.3,0.71,0.445,1.1,0.412c4.868-0.406,9.731-0.58,14.441-0.628c4.71,0.047,9.573,0.222,14.441,0.628
				c0.39,0.032,0.755-0.112,1.1-0.412c5.854,0.185,11.031,0.412,15.057,0.412c10.17,0,37.774,0,37.774,0
				c91.53-10.17,154.003-245.534,116.229-312.365C797.47,1499.486,776.351,1484.127,755.349,1477.914z"/>
		</g>
		<g>
			
				<ellipse transform="matrix(0.5 -0.866 0.866 0.5 -961.8696 1409.2722)" style="fill:#F46E6E;" cx="739.531" cy="1537.64" rx="18.785" ry="39.334"/>
		</g>
		<g>
			<path style="fill:#21111D;" d="M599.272,1843.446l-37.942-0.009c-38.551-4.283-67.389-45.739-84.794-79.761
				c-41.108-80.361-56.641-192.304-32.587-234.859c16.916-29.93,40.128-48.65,67.124-54.133c20.611-4.188,43.492-0.554,62.774,9.962
				c25.364,13.835,47.746,17.515,56.191,18.454c0.21,0.03,17.747,2.149,40.709-11.151c0.723-0.421,1.654-0.172,2.073,0.553
				c0.421,0.725,0.173,1.654-0.553,2.073c-23.922,13.859-41.852,11.636-42.6,11.538c-8.589-0.956-31.436-4.71-57.273-18.803
				c-28.815-15.717-87.737-24.349-125.804,43c-11.299,19.991-14.041,57.441-7.521,102.748
				c6.451,44.838,21.094,91.942,40.171,129.236c24.098,47.109,53.339,74.845,82.343,78.116h37.69c0.839,0,1.518,0.679,1.518,1.518
				S600.111,1843.446,599.272,1843.446z"/>
		</g>
	</g>
	<g>
		<path style="fill:#21111D;" d="M146.923,1840.479c-0.839,0-1.518-0.679-1.518-1.518v-67.697c0-8.923,7.259-16.183,16.182-16.183
			h313.134c0.839,0,1.518,0.679,1.518,1.518s-0.679,1.518-1.518,1.518H161.588c-7.249,0-13.147,5.899-13.147,13.147v67.697
			C148.441,1839.8,147.762,1840.479,146.923,1840.479z"/>
	</g>
	<g>
		<g>
			<g>
				<g>
					<path style="fill:#FECC86;" d="M2151.317,554.482c0-139.178-112.826-252.005-252.005-252.005
						c-139.178,0-252.005,112.826-252.005,252.005c0,69.034,27.768,131.576,72.733,177.091l-0.009,0.001
						c0,0,76.263,81.559,102.018,170.453c0,0,44.031,14.954,77.263,15.785c33.232-0.831,77.263-15.785,77.263-15.785
						c25.754-88.894,102.018-170.453,102.018-170.453l-0.009-0.001C2123.549,686.057,2151.317,623.516,2151.317,554.482z"/>
				</g>
				<g>
					<path style="fill:#4CB7D8;" d="M1899.254,1050.106L1899.254,1050.106c-21.633,0-39.17-17.537-39.17-39.17l0,0h78.34l0,0
						C1938.423,1032.569,1920.887,1050.106,1899.254,1050.106z"/>
				</g>
				<g>
					<path style="fill:#4CB7D8;" d="M1909.579,1021.66h-20.651c-40.694,0-73.683-32.989-73.683-73.683v-66.043h168.016v66.043
						C1983.262,988.671,1950.273,1021.66,1909.579,1021.66z"/>
				</g>
				<path style="opacity:0.3;fill:#FECC86;" d="M2151.317,554.481c0-51.561-15.489-99.503-42.062-139.434
					C2035.549,596.655,1918,718.8,1748.677,766.173c21.326,27.971,49.59,70.093,66.684,115.761h167.9v0.01
					c30.21-80.722,95.332-150.371,95.332-150.371l-0.009-0.001C2123.549,686.057,2151.317,623.516,2151.317,554.481z"/>
			</g>
			<g>
				<path style="fill:#F99247;" d="M1940.489,882.918l-7.214-1.97c0.235-0.862,23.738-87.273,40.038-175.781
					c28.282-153.571,12.019-186.143-0.193-191.889c-12.484-5.873-22.302-4.822-29.184,3.131c-0.5,0.58-0.982,1.189-1.442,1.826
					c17.614,10.389,21.878,26.346,22.891,32.807c2.795,17.828-5.181,35.627-17.776,39.676c-3.05,0.979-8.919,1.475-13.992-6.197
					c-8.059-12.185-10.577-42.651-1.553-62.965c-8.664-3.543-19.215-5.429-31.292-5.429h-7.274c-12.075,0-22.628,1.886-31.292,5.428
					c9.023,20.315,6.506,50.781-1.552,62.966c-5.073,7.671-10.94,7.18-13.994,6.197c-12.596-4.049-20.571-21.847-17.776-39.676
					c1.013-6.46,5.279-22.419,22.891-32.807c-0.46-0.635-0.94-1.245-1.442-1.824c-6.878-7.953-16.701-9.008-29.184-3.133
					c-12.211,5.746-28.473,38.318-0.192,191.889c16.3,88.508,39.802,174.919,40.038,175.781l-7.214,1.97
					c-0.235-0.865-23.811-87.542-40.169-176.357c-22.583-122.605-21.159-188.042,4.354-200.048
					c19.795-9.313,31.602-2.417,38.022,5.005c0.902,1.042,1.745,2.151,2.536,3.322c8.815-3.75,20.217-6.191,34.974-6.191h7.274
					c14.757,0,26.161,2.442,34.976,6.191c0.789-1.171,1.634-2.28,2.536-3.322c6.418-7.424,18.227-14.319,38.021-5.005
					c25.513,12.006,26.938,77.443,4.356,200.048C1964.301,795.376,1940.725,882.053,1940.489,882.918z M1855.489,524.852
					c-10.628,6.207-17.366,15.532-19.218,27.348c-2.439,15.561,4.586,28.799,12.678,31.401c0.752,0.242,2.758,0.893,5.467-3.204
					C1861.316,569.964,1863.137,542.407,1855.489,524.852z M1938.781,524.852c-7.651,17.555-5.829,45.112,1.072,55.545
					c2.711,4.096,4.713,3.445,5.467,3.204c8.092-2.601,15.118-15.839,12.678-31.4
					C1956.146,540.383,1949.408,531.058,1938.781,524.852z"/>
			</g>
			<g>
				<path style="fill:#21111D;" d="M1814.024,883.695c-2.008-5.746-2.913-7.849-4.9-12.458l-1.081-2.518
					c-31.465-73.476-88.803-135.253-89.378-135.869l-0.181-0.193c-47.108-47.801-73.046-111.063-73.046-178.175
					c0-139.987,113.886-253.874,253.873-253.874c85.946,0,165.403,42.984,212.547,114.983l-3.129,2.048
					c-46.449-70.94-124.737-113.292-209.418-113.292c-137.924,0-250.135,112.211-250.135,250.136
					c0,66.228,25.638,128.654,72.191,175.777l2.437,2.466l-0.175,0.036c10.975,12.266,59.685,68.72,87.848,134.488l1.079,2.511
					c2.021,4.691,2.943,6.833,4.996,12.702L1814.024,883.695z"/>
			</g>
			<g>
				<path style="fill:#21111D;" d="M1723.318,438.139l-3.589-1.041c0.181-0.624,18.813-62.651,81.503-85.972l1.303,3.503
					C1741.652,377.278,1723.496,437.533,1723.318,438.139z"/>
			</g>
			<g>
				<path style="fill:#21111D;" d="M1734.874,460.565l-3.589-1.041c0.181-0.624,18.811-62.651,81.503-85.973l1.303,3.504
					C1753.205,399.705,1735.051,459.96,1734.874,460.565z"/>
			</g>
			<g>
				<path style="fill:#21111D;" d="M1908.412,1023.529h-18.317c-42.303,0-76.72-34.417-76.72-76.72v-66.745h169.886v3.738h-166.147
					v63.007c0,40.242,32.74,72.982,72.982,72.982h18.317c19.268,0,37.442-7.441,51.177-20.953l2.621,2.665
					C1947.773,1015.707,1928.668,1023.529,1908.412,1023.529z"/>
			</g>
			<g>
				<path style="fill:#21111D;" d="M1900.342,1051.99c-36.412,0-41.67-35.323-41.721-35.684l3.704-0.509
					c0.19,1.356,5.049,33.231,39.231,32.44l0.084,3.738C1901.204,1051.985,1900.769,1051.99,1900.342,1051.99z"/>
			</g>
			<g>
				<path style="fill:#21111D;" d="M2072.121,695.555l-2.227-3.003c33.262-24.676,38.495-65.874,38.545-66.288l3.713,0.437
					C2112.1,627.13,2106.71,669.893,2072.121,695.555z"/>
			</g>
			<g>
				<path style="fill:#21111D;" d="M2064.759,677.6l-2.227-3.003c24.24-17.984,28.068-48.032,28.105-48.333l3.713,0.437
					C2094.198,627.996,2090.328,658.63,2064.759,677.6z"/>
			</g>
			<g>
				<path style="fill:#21111D;" d="M1807.532,915.526l-0.044-3.739c1.426-0.016,143.09-1.852,187.956-18.575l1.307,3.503
					C1951.276,913.666,1813.379,915.458,1807.532,915.526z"/>
			</g>
			<g>
				<path style="fill:#21111D;" d="M1807.545,947.096l-0.069-3.739c1.55-0.029,155.286-3.076,184.024-18.47l1.767,3.295
					C1963.738,944,1813.909,946.977,1807.545,947.096z"/>
			</g>
			<g>
				<path style="fill:#21111D;" d="M1815.261,979.498l-0.033-3.739c1.389-0.013,139.344-1.466,176.297-20.562l1.716,3.322
					C1955.502,978.023,1820.969,979.446,1815.261,979.498z"/>
			</g>
		</g>
		<g>
			<g>
				<path style="fill:#FECC86;" d="M1583.062,514.813c-0.159,0-0.319-0.006-0.48-0.02l-89.179-7.589
					c-3.087-0.263-5.376-2.977-5.113-6.063c0.261-3.085,2.977-5.365,6.063-5.112l89.179,7.589c3.087,0.263,5.376,2.977,5.113,6.063
					C1588.396,512.605,1585.944,514.813,1583.062,514.813z"/>
			</g>
		</g>
		<g>
			<g>
				<path style="fill:#FECC86;" d="M1629.187,372.739c-1.09,0-2.192-0.318-3.162-0.98l-73.865-50.541
					c-2.556-1.75-3.209-5.239-1.46-7.796c1.747-2.555,5.235-3.211,7.795-1.461l73.865,50.541c2.556,1.75,3.209,5.239,1.46,7.796
					C1632.734,371.885,1630.976,372.739,1629.187,372.739z"/>
			</g>
		</g>
		<g>
			<g>
				<path style="fill:#FECC86;" d="M1762.69,270.826c-2.214,0-4.312-1.321-5.197-3.499l-33.687-82.921
					c-1.167-2.869,0.215-6.14,3.085-7.305c2.864-1.167,6.139,0.214,7.305,3.085l33.687,82.92c1.167,2.869-0.215,6.14-3.085,7.305
					C1764.109,270.692,1763.393,270.826,1762.69,270.826z"/>
			</g>
		</g>
		<g>
			<g>
				<path style="fill:#FECC86;" d="M2211.079,530.971c-2.928,0-5.394-2.274-5.59-5.238c-0.205-3.09,2.136-5.761,5.226-5.965
					l89.309-5.899c3.065-0.201,5.76,2.136,5.964,5.226s-2.136,5.761-5.226,5.966l-89.309,5.899
					C2211.329,530.968,2211.203,530.971,2211.079,530.971z"/>
			</g>
		</g>
		<g>
			<g>
				<path style="fill:#FECC86;" d="M2167.651,388.049c-1.825,0-3.616-0.891-4.693-2.53c-1.699-2.589-0.98-6.066,1.61-7.765
					l74.811-49.133c2.587-1.7,6.068-0.978,7.766,1.608c1.699,2.589,0.98,6.066-1.61,7.766l-74.811,49.133
					C2169.776,387.751,2168.706,388.049,2167.651,388.049z"/>
			</g>
		</g>
		<g>
			<g>
				<path style="fill:#FECC86;" d="M2053.381,270.498c-0.738,0-1.486-0.147-2.207-0.455c-2.846-1.219-4.166-4.516-2.946-7.363
					l35.251-82.268c1.221-2.847,4.52-4.16,7.364-2.945c2.846,1.219,4.166,4.516,2.946,7.363l-35.251,82.268
					C2057.626,269.224,2055.555,270.498,2053.381,270.498z"/>
			</g>
		</g>
		<g>
			<g>
				<path style="fill:#FECC86;" d="M1909.621,226.946c-0.029,0-0.058,0-0.088-0.001c-3.098-0.047-5.569-2.597-5.522-5.694
					l1.378-89.492c0.047-3.067,2.55-5.521,5.606-5.521c0.029,0,0.058,0,0.088,0.001c3.098,0.048,5.569,2.597,5.522,5.694
					l-1.378,89.492C1915.18,224.492,1912.677,226.946,1909.621,226.946z"/>
			</g>
		</g>
		<g style="opacity:0.5;">
			
				<ellipse transform="matrix(0.5417 -0.8406 0.8406 0.5417 588.3922 1878.1842)" style="fill:#F3FFFE;" cx="2016.558" cy="399.516" rx="29.49" ry="61.748"/>
		</g>
	</g>
	
	<g>
		<g>
			<g>
				<path style="fill:#FFFFFF;" d="M1757.856,1704.999c0,0,27.879,70.148,4.497,123.208l536.001,4.497l49.463-4.497l43.596-27.012
					v-41.337l-12.119-34.175l-39.571-20.685H1757.856z"/>
			</g>
		</g>
		<g>
			<g>
				<path style="fill:#61A3C5;" d="M2323.461,1839.534h-579.095c-3.772,0-6.829-3.057-6.829-6.829c0-3.772,3.057-6.829,6.829-6.829
					h579.095c34.956,0,63.393-26.388,63.393-58.823c0-32.435-28.438-58.821-63.393-58.821h-579.095
					c-3.772,0-6.829-3.057-6.829-6.829c0-3.772,3.057-6.829,6.829-6.829h579.095c42.486,0,77.052,32.515,77.052,72.48
					C2400.513,1807.019,2365.947,1839.534,2323.461,1839.534z"/>
			</g>
		</g>
		<g>
			<path style="fill:#AAC9F8;" d="M2049.914,1768.571h-284.188c-0.839,0-1.518-0.679-1.518-1.518c0-0.839,0.679-1.518,1.518-1.518
				h284.188c0.839,0,1.518,0.679,1.518,1.518C2051.431,1767.892,2050.752,1768.571,2049.914,1768.571z"/>
		</g>
		<g>
			<path style="fill:#AAC9F8;" d="M2366.029,1768.571h-276.094c-0.839,0-1.518-0.679-1.518-1.518c0-0.839,0.679-1.518,1.518-1.518
				h276.094c0.839,0,1.518,0.679,1.518,1.518C2367.547,1767.892,2366.868,1768.571,2366.029,1768.571z"/>
		</g>
		<g>
			<path style="fill:#AAC9F8;" d="M2358.609,1795.761h-141.657c-0.839,0-1.518-0.679-1.518-1.518c0-0.839,0.679-1.518,1.518-1.518
				h141.657c0.839,0,1.518,0.679,1.518,1.518C2360.126,1795.082,2359.448,1795.761,2358.609,1795.761z"/>
		</g>
		<g>
			<path style="fill:#AAC9F8;" d="M2196.168,1795.761h-430.443c-0.839,0-1.518-0.679-1.518-1.518c0-0.839,0.679-1.518,1.518-1.518
				h430.443c0.839,0,1.518,0.679,1.518,1.518C2197.686,1795.082,2197.007,1795.761,2196.168,1795.761z"/>
		</g>
		<g>
			<g>
				<path style="fill:#FFFFFF;" d="M2385.803,1561.361c0,0-27.879,70.148-4.497,123.208l-536.001,4.497l-49.463-4.497
					l-43.596-27.012v-41.337l12.119-34.175l39.571-20.685H2385.803z"/>
			</g>
		</g>
		<g>
			<g>
				<path style="fill:#F75553;" d="M1820.198,1695.895h579.095c3.772,0,6.829-3.057,6.829-6.829s-3.058-6.829-6.829-6.829h-579.095
					c-34.956,0-63.393-26.388-63.393-58.823s28.438-58.821,63.393-58.821h579.095c3.772,0,6.829-3.057,6.829-6.829
					s-3.058-6.829-6.829-6.829h-579.095c-42.486,0-77.052,32.515-77.052,72.48
					C1743.146,1663.38,1777.712,1695.895,1820.198,1695.895z"/>
			</g>
		</g>
		<g>
			<path style="fill:#AAC9F8;" d="M2377.935,1624.932h-284.189c-0.839,0-1.518-0.679-1.518-1.518c0-0.839,0.679-1.518,1.518-1.518
				h284.189c0.839,0,1.518,0.679,1.518,1.518C2379.452,1624.253,2378.774,1624.932,2377.935,1624.932z"/>
		</g>
		<g>
			<path style="fill:#AAC9F8;" d="M2053.726,1624.932h-276.095c-0.839,0-1.518-0.679-1.518-1.518c0-0.839,0.679-1.518,1.518-1.518
				h276.095c0.839,0,1.518,0.679,1.518,1.518C2055.243,1624.253,2054.564,1624.932,2053.726,1624.932z"/>
		</g>
		<g>
			<path style="fill:#AAC9F8;" d="M1926.709,1652.122H1785.05c-0.839,0-1.518-0.679-1.518-1.518c0-0.839,0.679-1.518,1.518-1.518
				h141.659c0.839,0,1.518,0.679,1.518,1.518C1928.227,1651.443,1927.548,1652.122,1926.709,1652.122z"/>
		</g>
		<g>
			<path style="fill:#AAC9F8;" d="M2377.935,1652.122h-430.443c-0.839,0-1.518-0.679-1.518-1.518c0-0.839,0.679-1.518,1.518-1.518
				h430.443c0.839,0,1.518,0.679,1.518,1.518C2379.452,1651.443,2378.774,1652.122,2377.935,1652.122z"/>
		</g>
		<g>
			<g>
				<path style="fill:#FFFFFF;" d="M1848.361,1426.076c0,0,25.874,65.102,4.173,114.347l497.449,4.173l45.906-4.173l40.46-25.069
					v-38.364l-11.247-31.717l-36.724-19.197H1848.361z"/>
			</g>
		</g>
		<g>
			<g>
				<path style="fill:#258D8C;" d="M2373.284,1550.934h-537.444c-3.5,0-6.338-2.838-6.338-6.338c0-3.501,2.838-6.338,6.338-6.338
					h537.444c32.441,0,58.833-24.49,58.833-54.592c0-30.102-26.392-54.59-58.833-54.59h-537.444c-3.5,0-6.338-2.838-6.338-6.338
					c0-3.501,2.838-6.338,6.338-6.338h537.444c39.43,0,71.51,30.176,71.51,67.267
					C2444.794,1520.758,2412.715,1550.934,2373.284,1550.934z"/>
			</g>
		</g>
		<g>
			<path style="fill:#AAC9F8;" d="M2119.412,1485.185h-263.748c-0.839,0-1.518-0.679-1.518-1.518s0.679-1.518,1.518-1.518h263.748
				c0.839,0,1.518,0.679,1.518,1.518S2120.25,1485.185,2119.412,1485.185z"/>
		</g>
		<g>
			<path style="fill:#AAC9F8;" d="M2412.79,1485.185h-256.235c-0.839,0-1.518-0.679-1.518-1.518s0.679-1.518,1.518-1.518h256.235
				c0.839,0,1.518,0.679,1.518,1.518S2413.628,1485.185,2412.79,1485.185z"/>
		</g>
		<g>
			<path style="fill:#AAC9F8;" d="M2405.904,1510.418h-131.47c-0.839,0-1.518-0.679-1.518-1.518c0-0.839,0.679-1.518,1.518-1.518
				h131.47c0.839,0,1.518,0.679,1.518,1.518C2407.422,1509.74,2406.743,1510.418,2405.904,1510.418z"/>
		</g>
		<g>
			<path style="fill:#AAC9F8;" d="M2405.904,1459.937h-550.24c-0.839,0-1.518-0.679-1.518-1.518c0-0.839,0.679-1.518,1.518-1.518
				h550.24c0.839,0,1.518,0.679,1.518,1.518C2407.422,1459.258,2406.743,1459.937,2405.904,1459.937z"/>
		</g>
		<g>
			<g>
				<path style="fill:#21111D;" d="M2399.294,1697.413h-579.096c-43.323,0-78.569-33.196-78.569-73.999
					c0-40.802,35.246-73.997,78.569-73.997h579.096c4.603,0,8.347,3.744,8.347,8.347c0,4.602-3.744,8.347-8.347,8.347
					c-0.839,0-1.518-0.679-1.518-1.518c0-0.839,0.679-1.518,1.518-1.518c2.928,0,5.312-2.383,5.312-5.312s-2.383-5.312-5.312-5.312
					h-579.096c-41.65,0-75.534,31.833-75.534,70.962c0,39.129,33.884,70.964,75.534,70.964h579.096c2.928,0,5.312-2.383,5.312-5.312
					s-2.383-5.312-5.312-5.312c-0.839,0-1.518-0.679-1.518-1.518c0-0.839,0.679-1.518,1.518-1.518c4.603,0,8.347,3.744,8.347,8.347
					C2407.641,1693.668,2403.897,1697.413,2399.294,1697.413z"/>
			</g>
		</g>
		<g>
			<g>
				<path style="fill:#21111D;" d="M2373.284,1552.453H1835.84c-4.33,0-7.855-3.524-7.855-7.856c0-4.332,3.524-7.856,7.855-7.856
					c0.839,0,1.518,0.679,1.518,1.518c0,0.839-0.679,1.518-1.518,1.518c-2.657,0-4.82,2.162-4.82,4.821s2.162,4.821,4.82,4.821
					h537.444c38.594,0,69.993-29.496,69.993-65.751c0-36.254-31.399-65.748-69.993-65.748H1835.84c-2.657,0-4.82,2.162-4.82,4.82
					c0,2.659,2.162,4.821,4.82,4.821c0.839,0,1.518,0.679,1.518,1.518s-0.679,1.518-1.518,1.518c-4.33,0-7.855-3.524-7.855-7.856
					c0-4.331,3.524-7.855,7.855-7.855h537.444c40.267,0,73.028,30.856,73.028,68.784
					C2446.312,1521.595,2413.552,1552.453,2373.284,1552.453z"/>
			</g>
		</g>
		<g>
			<g>
				<path style="fill:#21111D;" d="M2323.462,1841.051h-579.095c-4.603,0-8.347-3.745-8.347-8.347c0-4.603,3.744-8.347,8.347-8.347
					c0.839,0,1.518,0.679,1.518,1.518s-0.679,1.518-1.518,1.518c-2.929,0-5.312,2.383-5.312,5.312c0,2.928,2.383,5.312,5.312,5.312
					h579.095c41.65,0,75.534-31.834,75.534-70.964s-33.884-70.962-75.534-70.962h-579.095c-2.929,0-5.312,2.383-5.312,5.312
					c0,2.928,2.383,5.312,5.312,5.312c0.839,0,1.518,0.679,1.518,1.518s-0.679,1.518-1.518,1.518c-4.603,0-8.347-3.745-8.347-8.347
					c0-4.603,3.744-8.347,8.347-8.347h579.095c43.323,0,78.57,33.195,78.57,73.997S2366.785,1841.051,2323.462,1841.051z"/>
			</g>
		</g>
		<g>
			<path style="fill:#F75553;" d="M1918.812,1739.848c0,0-18.24,45.435-7.727,78.884l14.819-22.901c0,0,10.117,12.141,16.322,22.901
				c0,0,11.317-74.703,33.254-78.884H1918.812z"/>
		</g>
		<g>
			<path style="fill:#7FC6A6;" d="M2307.51,1596.21c0,0,18.24,45.435,7.727,78.884l-14.819-22.901c0,0-10.117,12.141-16.322,22.901
				c0,0-11.316-74.703-33.254-78.884H2307.51z"/>
		</g>
		<g>
			<path style="fill:#4CB7D8;" d="M1942.459,1508.901c0,0-18.24,45.435-7.726,78.884l14.819-22.901c0,0,10.117,12.141,16.322,22.901
				c0,0,11.317-74.703,33.254-78.884H1942.459z"/>
		</g>
		<g>
			<path style="fill:#AAC9F8;" d="M2358.609,1741.365h-592.883c-0.839,0-1.518-0.679-1.518-1.518c0-0.839,0.679-1.518,1.518-1.518
				h592.883c0.839,0,1.518,0.679,1.518,1.518C2360.126,1740.686,2359.448,1741.365,2358.609,1741.365z"/>
		</g>
		<g>
			<path style="fill:#AAC9F8;" d="M2377.935,1597.728H1785.05c-0.839,0-1.518-0.679-1.518-1.518s0.679-1.518,1.518-1.518h592.885
				c0.839,0,1.518,0.679,1.518,1.518S2378.774,1597.728,2377.935,1597.728z"/>
		</g>
		<g>
			<path style="fill:#AAC9F8;" d="M2255.147,1510.418h-399.483c-0.839,0-1.518-0.679-1.518-1.518c0-0.839,0.679-1.518,1.518-1.518
				h399.483c0.839,0,1.518,0.679,1.518,1.518C2256.664,1509.74,2255.986,1510.418,2255.147,1510.418z"/>
		</g>
	</g>
	<g>
		<g>
			<g>
				<g>
					<polygon style="fill:#FE9F73;" points="2125.037,1608.962 2146.151,1620.825 2171.389,1596 2172.069,1591.976 
						2165.892,1546.806 2116.769,1555.953 					"/>
				</g>
			</g>
		</g>
		<g>
			<g>
				<path style="fill:#F75553;" d="M2161.106,1622.137l-67.708,9.22c-0.624-0.006-1.139-0.038-1.519-0.1
					c-6.642-1.086-5.111-5.416-5.111-5.416l29.685-24.544l0.217-3.023c0.349-4.854,5.951-7.317,10.747-4.725l12.473,6.741
					c0,0,29.323,0.421,32.179-8.313l2.654,21.295C2174.723,1613.271,2177.841,1619.752,2161.106,1622.137z"/>
			</g>
		</g>
	</g>
	<g>
		<g>
			<g>
				<g>
					<polygon style="fill:#FE9F73;" points="2037.548,1611.857 2058.662,1623.719 2083.9,1598.894 2084.581,1594.871 
						2078.404,1549.701 2029.28,1558.848 					"/>
				</g>
			</g>
		</g>
		<g>
			<g>
				<path style="fill:#F75553;" d="M2073.617,1625.031l-67.708,9.22c-0.624-0.006-1.139-0.038-1.519-0.1
					c-6.642-1.086-5.11-5.416-5.11-5.416l29.685-24.544l0.217-3.023c0.349-4.854,5.951-7.317,10.747-4.725l12.473,6.741
					c0,0,29.323,0.421,32.179-8.313l2.654,21.295C2087.234,1616.166,2090.353,1622.647,2073.617,1625.031z"/>
			</g>
		</g>
	</g>
	<g>
		<g>
			<g>
				<path style="fill:#49263E;" d="M2203.141,1427.625c0,0,84.454,3.971,107.906-1.237s29.229-78.41,2.599-123.26
					s-119.799,92.851-119.799,92.851L2203.141,1427.625z"/>
			</g>
		</g>
		<g>
			<g>
				<g>
					<path style="fill:#3A1F33;" d="M2150.901,1318.91c0,0-117.61,18.296-121.019,31.932
						c-3.409,13.636-13.177,158.609-5.872,220.458c0,0,44.804,3.084,66.232-2.11l5.215-150.807l35.368-4.058l81.022-97.4
						L2150.901,1318.91z"/>
				</g>
			</g>
		</g>
		<g>
			<g>
				<g>
					<path style="fill:#49263E;" d="M2208.113,1327.428c0,0-91.069,25.697-94.478,39.333s-13.113,143.016-5.808,204.864
						c0,0,48.177,2.76,69.605-2.435l5.774-142.26l20.782,0.725l50.39-88.653L2208.113,1327.428z"/>
				</g>
			</g>
		</g>
		<g>
			<g>
				<g>
					<g>
						<path style="fill:#FEBAC7;" d="M2264.566,1153.912c0,0,40.253,0.678,49.609,6.198c9.356,5.519,52.212,76.134,61.465,106.085
							c0,0-24.188,21.185-55.355,21.996l-7.49-14.123l4.281,28.915l-81.634,24.211c-27.698,8.215-57.311,7.253-84.418-2.743
							l-8.48-3.127c0,0,0.129-137.403,24.671-151.923C2189.078,1156.466,2236.444,1149.663,2264.566,1153.912z"/>
					</g>
				</g>
			</g>
		</g>
		<g>
			<g>
				<g>
					<path style="fill:#FE9F73;" d="M2213.987,1086.401v38.899c0,0-0.548,13.149,10.958,14.793l-2.148,17.543
						c-0.798,6.521,3.101,12.764,9.364,14.747c3.063,0.97,6.718,1.678,10.864,1.678c13.149,0,20.271-9.862,21.367-14.793
						s-2.191-28.49-2.191-28.49l0.4-11.576l-1.496-44.855L2213.987,1086.401z"/>
				</g>
			</g>
		</g>
		<g>
			<g>
				<g>
					<path style="fill:#FECC86;" d="M2245.733,1105.85c0.137,0,0.273-0.051,0.379-0.153c0.218-0.209,0.225-0.556,0.016-0.774
						c-0.075-0.079-7.611-7.787-14.497-2.239c-0.235,0.189-0.273,0.535-0.083,0.77c0.19,0.236,0.534,0.273,0.771,0.083
						c6.102-4.915,12.739,1.854,13.019,2.144C2245.446,1105.794,2245.59,1105.85,2245.733,1105.85z"/>
				</g>
			</g>
		</g>
		<g>
			<g>
				<g>
					<path style="fill:#FECC86;" d="M2223.149,1102.563c0.153,0,0.306-0.064,0.414-0.189c0.198-0.229,0.174-0.574-0.055-0.773
						c-0.221-0.192-5.447-4.661-8.751-1.828c-0.229,0.197-0.256,0.543-0.059,0.772c0.197,0.231,0.543,0.257,0.773,0.059
						c2.588-2.219,7.273,1.784,7.32,1.824C2222.894,1102.519,2223.021,1102.563,2223.149,1102.563z"/>
				</g>
			</g>
		</g>
		<g>
			<g>
				<g>
					<circle cx="2236.298" cy="1108.065" r="1.644"/>
				</g>
			</g>
		</g>
		<g>
			<g>
				<g>
					<circle cx="2218.827" cy="1106.421" r="1.644"/>
				</g>
			</g>
		</g>
		<g>
			<g>
				<g>
					<path style="fill:#FECC86;" d="M2259.572,1076.509l-9.172,12.987c0,0-27.789,10.792-42.034-1.991
						c-14.245-12.784-9.861-18.924-5.686-25.324c2.058-3.155,11.885-9.578,23.938-4.226c6.579,2.921,11.445-5.795,19.115-1.412
						c7.67,4.383,16.718,11.974,15.706,14.976S2259.572,1076.509,2259.572,1076.509z"/>
				</g>
			</g>
		</g>
		<g>
			<g>
				<g>
					<path style="fill:#FECC86;" d="M2259.017,1071.03c0,0,12.649-0.609,16.18,11.566c3.531,12.175-1.218,18.552-1.339,22.181
						s2.34,28.101-14.84,26.275l-4.64-40.421l5.979-16.093L2259.017,1071.03z"/>
				</g>
			</g>
		</g>
		<g>
			<g>
				<g>
					<circle style="fill:#FE9F73;" cx="2258.091" cy="1107.494" r="9.862"/>
				</g>
			</g>
		</g>
		<g>
			<g>
				<g>
					<path style="fill:#F07162;" d="M2258.821,1113.537c2.049,0,3.417-1.54,3.867-3.079c0.533-1.82-0.078-3.589-1.556-4.506
						c-2.184-1.356-4.164-0.486-5.178,0.181c0.426-1.119,1.093-1.934,1.991-2.428c1.943-1.069,4.353-0.29,4.377-0.282
						c0.143,0.048,0.298-0.03,0.346-0.174c0.048-0.143-0.03-0.298-0.173-0.346c-0.108-0.036-2.655-0.862-4.811,0.321
						c-1.244,0.683-2.091,1.892-2.516,3.593l-0.239,0.954l0.698-0.693c0.098-0.099,2.444-2.379,5.216-0.659
						c1.534,0.952,1.67,2.689,1.319,3.886c-0.364,1.243-1.456,2.685-3.339,2.685c-0.019,0-0.037-0.002-0.057,0
						c-0.149,0-0.272,0.12-0.274,0.27c-0.002,0.151,0.119,0.276,0.27,0.278C2258.782,1113.537,2258.802,1113.537,2258.821,1113.537z
						"/>
				</g>
			</g>
		</g>
		<g>
			<g>
				<g>
					<path style="fill:#F07162;" d="M2251.618,1128.922c0,0-0.771,22.008-28.258,24.11l1.584-12.939
						C2224.945,1140.093,2242.771,1143.674,2251.618,1128.922z"/>
				</g>
			</g>
		</g>
		<g>
			<g>
				<g>
					<path style="fill:#21111D;" d="M2313.899,1275.844c33.986-5.287,54.141-25.636,54.341-25.841l-1.177-1.147
						c-0.196,0.201-19.995,20.165-53.416,25.364L2313.899,1275.844z"/>
				</g>
			</g>
		</g>
		<g>
			<g>
				<g>
					<path style="fill:#21111D;" d="M2148.523,1573.306c21.288,0,28.879-3.206,29.239-3.364l0.471-0.207l5.59-143.096l-8.797,4.149
						l0.701,1.486l6.348-2.994l-5.443,139.33c-2.302,0.795-13.344,3.981-39.421,2.777l-0.076,1.641
						C2141.305,1573.223,2145.092,1573.306,2148.523,1573.306z"/>
				</g>
			</g>
		</g>
		<g>
			<g>
				<g>
					<path style="fill:#21111D;" d="M2168.487,1542.449c2.272-8.763,2.922-94.242,2.948-97.876l-1.644-0.012
						c-0.006,0.888-0.674,88.908-2.896,97.476L2168.487,1542.449z"/>
				</g>
			</g>
		</g>
		<g>
			<g>
				<g>
					<path style="fill:#21111D;" d="M2083.856,1421.599c10.798-3.493,25.662-4.018,25.811-4.023l-0.054-1.643
						c-0.151,0.005-15.242,0.536-26.263,4.102L2083.856,1421.599z"/>
				</g>
			</g>
		</g>
		<g>
			<g>
				<g>
					<path style="fill:#21111D;" d="M2059.556,1573.001c18.19,0,30.75-2.981,30.878-3.012l0.607-0.147l5.273-152.487l-6.733,5.421
						l1.031,1.28l3.936-3.168l-5.106,147.639c-2.787,0.601-14.926,2.998-31.478,2.823l-0.016,1.644
						C2058.488,1572.999,2059.025,1573.001,2059.556,1573.001z"/>
				</g>
			</g>
		</g>
		<g>
			<g>
				<g>
					<path style="fill:#21111D;" d="M2082.465,1545.627c2.26-13.237,0.104-102.84,0.011-106.648l-1.643,0.04
						c0.023,0.932,2.245,93.252,0.011,106.333L2082.465,1545.627z"/>
				</g>
			</g>
		</g>
		<g>
			<g>
				<polygon style="fill:#5089A0;" points="2195.137,1356.319 2229.551,1337.416 2185.12,1329.189 				"/>
			</g>
		</g>
		<g>
			<g>
				<path style="fill:#4CB7D8;" d="M2193.848,1354.156c0.579-0.365,33.269-17.726,33.269-17.726l0.516,2.04l-32.495,17.849
					L2193.848,1354.156z"/>
			</g>
		</g>
		<g>
			<g>
				<g>
					<path style="fill:#FE9F73;" d="M2163.71,1334.493l9.306-14.47h0c5.127-8.287,13.407-19.154,22.026-20.116
						c14.082-1.572,99.852-5.094,127.065-8.451c0,0-1.869-3.275-1.822-3.264c0.318,0.071,22.25-3.736,22.25-3.736l14.123-6.696
						l12.698-5.491c3.507,13.665,13.129,36.115,3.259,51.756c-18.239,28.9-157.728,14.671-170.104,10.886l-11.393,12.342
						l-2.327,3.577c-1.101,1.692-3.366,2.172-5.058,1.071c-1.692-1.101-2.172-3.365-1.071-5.058l-0.974,1.497
						c-1.101,1.692-3.365,2.172-5.058,1.071l0,0c-1.692-1.101-2.172-3.365-1.071-5.058c-1.101,1.692-3.366,2.172-5.058,1.071
						c-1.692-1.101-2.172-3.365-1.071-5.058l0.974-1.497c-1.101,1.692-3.365,2.172-5.058,1.071l0,0
						c-0.068-0.044-0.132-0.094-0.196-0.142c-0.016-0.01-0.031-0.022-0.046-0.034c-0.031-0.024-0.062-0.047-0.092-0.072
						c-0.004-0.003-0.008-0.005-0.011-0.009c-0.004-0.003-0.006-0.006-0.01-0.01c-0.227-0.19-0.425-0.405-0.595-0.636
						C2162.406,1336.634,2163.71,1334.493,2163.71,1334.493z"/>
				</g>
			</g>
		</g>
		<g>
			<g>
				<g>
					<path style="fill:#21111D;" d="M2319.845,1289.314l0.525-0.012c27.708-0.648,55.561-21.953,55.839-22.167l0.513-0.397
						l-17.574-38.937l-1.498,0.676l17.036,37.745c-3.884,2.865-28.898,20.601-53.831,21.422l-7.542-15.351l-1.475,0.724
						L2319.845,1289.314z"/>
				</g>
			</g>
		</g>
		<g>
			<g>
				<g>
					<path style="fill:#F07162;" d="M2331.899,1304.875c0.154,0.035,0.322,0.003,0.457-0.102c0.239-0.186,0.282-0.53,0.097-0.769
						l-9.985-12.853c-0.185-0.239-0.53-0.282-0.769-0.096c-0.239,0.186-0.282,0.53-0.097,0.769l9.985,12.853
						C2331.668,1304.782,2331.779,1304.848,2331.899,1304.875z"/>
				</g>
			</g>
		</g>
		<g>
			<g>
				<g>
					<path style="fill:#F07162;" d="M2168.804,1340.964c0.207,0.047,0.431-0.03,0.564-0.212l13.066-17.94
						c0.178-0.245,0.124-0.587-0.12-0.765c-0.244-0.178-0.587-0.124-0.765,0.12l-13.067,17.94c-0.178,0.245-0.124,0.587,0.12,0.765
						C2168.665,1340.918,2168.733,1340.948,2168.804,1340.964z"/>
				</g>
			</g>
		</g>
		<g>
			<g>
				<g>
					<path style="fill:#F07162;" d="M2174.542,1346.213c0.214,0.048,0.445-0.035,0.575-0.228l12.47-18.495
						c0.169-0.251,0.103-0.592-0.148-0.76c-0.25-0.17-0.591-0.103-0.76,0.148l-12.47,18.495c-0.169,0.251-0.103,0.592,0.148,0.76
						C2174.415,1346.172,2174.478,1346.198,2174.542,1346.213z"/>
				</g>
			</g>
		</g>
		<g>
			<g>
				<g>
					<path style="fill:#F07162;" d="M2181.471,1349.557c0.216,0.049,0.448-0.037,0.577-0.232l10.373-15.677
						c0.167-0.253,0.098-0.592-0.155-0.759c-0.252-0.169-0.592-0.098-0.759,0.154l-10.373,15.677
						c-0.167,0.252-0.098,0.592,0.155,0.759C2181.346,1349.518,2181.408,1349.543,2181.471,1349.557z"/>
				</g>
			</g>
		</g>
		<g>
			<g>
				<path style="fill:#21111D;" d="M2239.314,1429.161c-41.653,0-66.826-2.8-67.2-2.843l0.187-1.633
					c0.56,0.064,57.05,6.343,141.285-0.003l0.123,1.639C2285.442,1428.45,2260.288,1429.161,2239.314,1429.161z"/>
			</g>
		</g>
		<g>
			<g>
				
					<rect x="2145.726" y="1242.856" transform="matrix(0.0316 -0.9995 0.9995 0.0316 868.7123 3383.9495)" style="fill:#21111D;" width="69.819" height="1.643"/>
			</g>
		</g>
		<g>
			<g>
				<polygon style="fill:#4CB7D8;" points="2053.427,1239.509 2068.255,1345.823 2195.137,1356.319 2190.819,1240.646 				"/>
			</g>
		</g>
		<g>
			<g>
				
					<rect x="2303.237" y="1210.815" transform="matrix(0.9172 -0.3984 0.3984 0.9172 -307.9589 1021.673)" style="fill:#21111D;" width="1.644" height="81.876"/>
			</g>
		</g>
		<g>
			<g>
				
					<rect x="2312.835" y="1269.516" transform="matrix(0.9872 -0.1595 0.1595 0.9872 -174.6748 385.3938)" style="fill:#21111D;" width="1.643" height="22.802"/>
			</g>
		</g>
		<g>
			<g>
				<g>
					<path style="fill:#F07162;" d="M2228.856,1119.151c0.115,0,0.222-0.073,0.26-0.188c0.048-0.144-0.03-0.299-0.174-0.346
						l-5.491-1.816l1.735-12.924c0.02-0.15-0.085-0.288-0.235-0.308c-0.151-0.024-0.288,0.085-0.308,0.235l-1.795,13.374
						l5.923,1.958C2228.799,1119.147,2228.828,1119.151,2228.856,1119.151z"/>
				</g>
			</g>
		</g>
		<g>
			<g>
				<g>
					<path style="fill:#FBFDFC;" d="M2233.11,1124.487c-0.169-0.033-10.848-0.283-10.848-0.283s1.341,4.417,5.31,4.52
						S2233.11,1124.487,2233.11,1124.487z"/>
				</g>
			</g>
		</g>
		<g>
			<g>
				<circle style="fill:#E2F2F1;" cx="2119.733" cy="1289.314" r="4.832"/>
			</g>
		</g>
	</g>
	<circle style="fill:#FECC86;" cx="1308" cy="365" r="23"/>
	<circle style="fill:#FECC86;" cx="1366" cy="419" r="10"/>
	<circle style="fill:#FECC86;" cx="715" cy="673" r="23"/>
	<circle style="fill:#FECC86;" cx="519" cy="993" r="23"/>
	<circle style="fill:#FECC86;" cx="661" cy="760" r="10"/>
	<circle style="fill:#FECC86;" cx="361" cy="936" r="10"/>
	<circle style="fill:#FECC86;" cx="1485" cy="725" r="23"/>
	<circle style="fill:#FECC86;" cx="1397" cy="763" r="10"/>
	<circle style="fill:#FECC86;" cx="1564" cy="834" r="18"/>
	<circle style="fill:#FECC86;" cx="2466" cy="1052" r="23"/>
	<circle style="fill:#FECC86;" cx="2021" cy="1166" r="23"/>
	<circle style="fill:#FECC86;" cx="2378" cy="1090" r="10"/>
	<circle style="fill:#FECC86;" cx="2078" cy="1064" r="10"/>
	<circle style="fill:#FECC86;" cx="2545" cy="1161" r="18"/>
	<polygon style="fill:#FFFFFF;" points="1416,983 1416,1457 1769,1457 1769,1061 1693,983 	"/>
	<polygon style="fill:#AAC9F8;" points="1769,1061.148 1693.444,983 1693.444,1061.148 	"/>
	<path style="fill:#AAC9F8;" d="M1659,1042h-154c-2.209,0-4-1.791-4-4l0,0c0-2.209,1.791-4,4-4h154c2.209,0,4,1.791,4,4l0,0
		C1663,1040.209,1661.209,1042,1659,1042z"/>
	<path style="fill:#AAC9F8;" d="M1680,1073h-196c-2.209,0-4-1.791-4-4l0,0c0-2.209,1.791-4,4-4h196c2.209,0,4,1.791,4,4l0,0
		C1684,1071.209,1682.209,1073,1680,1073z"/>
	<path style="fill:#AAC9F8;" d="M1732,1147h-284c-2.209,0-4-1.791-4-4l0,0c0-2.209,1.791-4,4-4h284c2.209,0,4,1.791,4,4l0,0
		C1736,1145.209,1734.209,1147,1732,1147z"/>
	<path style="fill:#AAC9F8;" d="M1732,1182h-284c-2.209,0-4-1.791-4-4l0,0c0-2.209,1.791-4,4-4h284c2.209,0,4,1.791,4,4l0,0
		C1736,1180.209,1734.209,1182,1732,1182z"/>
	<path style="fill:#AAC9F8;" d="M1732,1217h-284c-2.209,0-4-1.791-4-4l0,0c0-2.209,1.791-4,4-4h284c2.209,0,4,1.791,4,4l0,0
		C1736,1215.209,1734.209,1217,1732,1217z"/>
	<path style="fill:#AAC9F8;" d="M1732,1287h-284c-2.209,0-4-1.791-4-4l0,0c0-2.209,1.791-4,4-4h284c2.209,0,4,1.791,4,4l0,0
		C1736,1285.209,1734.209,1287,1732,1287z"/>
	<path style="fill:#AAC9F8;" d="M1732,1322h-284c-2.209,0-4-1.791-4-4l0,0c0-2.209,1.791-4,4-4h284c2.209,0,4,1.791,4,4l0,0
		C1736,1320.209,1734.209,1322,1732,1322z"/>
	<path style="fill:#AAC9F8;" d="M1732,1412h-284c-2.209,0-4-1.791-4-4l0,0c0-2.209,1.791-4,4-4h284c2.209,0,4,1.791,4,4l0,0
		C1736,1410.209,1734.209,1412,1732,1412z"/>
	<path style="fill:#21111D;" d="M1064.302,1837.441l1.068,1.559l0.653,1.478l4.153,0.004l-378.703-543.433
		c-0.479-0.689-1.424-0.855-2.112-0.378c-0.688,0.479-0.857,1.424-0.378,2.112l375.374,538.658H1064.302z"/>
	<rect x="62" y="1839" style="fill:#21111D;" width="2606" height="8"/>
</g>
</svg>
