<?xml version="1.0" encoding="utf-8"?>
<!-- Generator: Adobe Illustrator 27.5.0, SVG Export Plug-In . SVG Version: 6.00 Build 0)  -->
<svg version="1.1" xmlns="http://www.w3.org/2000/svg" xmlns:xlink="http://www.w3.org/1999/xlink" x="0px" y="0px"
	 viewBox="0 0 500 500" style="enable-background:new 0 0 500 500;" xml:space="preserve">
<g id="Background_Complete">
	<g>
		<rect y="382.398" style="fill:#EBEBEB;" width="500" height="0.25"/>
		<rect x="416.779" y="398.494" style="fill:#EBEBEB;" width="33.122" height="0.25"/>
		<rect x="322.527" y="401.208" style="fill:#EBEBEB;" width="8.693" height="0.25"/>
		<rect x="396.586" y="389.208" style="fill:#EBEBEB;" width="19.192" height="0.25"/>
		<rect x="52.459" y="390.888" style="fill:#EBEBEB;" width="43.193" height="0.25"/>
		<rect x="104.556" y="390.888" style="fill:#EBEBEB;" width="6.333" height="0.25"/>
		<rect x="131.471" y="395.111" style="fill:#EBEBEB;" width="93.676" height="0.25"/>
		<path style="fill:#EBEBEB;" d="M237.014,337.8H43.915c-3.147,0-5.708-2.561-5.708-5.708V60.66c0-3.147,2.561-5.708,5.708-5.708
			h193.099c3.146,0,5.707,2.561,5.707,5.708v271.432C242.721,335.239,240.16,337.8,237.014,337.8z M43.915,55.203
			c-3.01,0-5.458,2.448-5.458,5.458v271.432c0,3.01,2.448,5.458,5.458,5.458h193.099c3.009,0,5.457-2.448,5.457-5.458V60.66
			c0-3.009-2.448-5.458-5.457-5.458H43.915z"/>
		<path style="fill:#EBEBEB;" d="M453.31,337.8H260.212c-3.147,0-5.707-2.561-5.707-5.708V60.66c0-3.147,2.561-5.708,5.707-5.708
			H453.31c3.148,0,5.708,2.561,5.708,5.708v271.432C459.019,335.239,456.458,337.8,453.31,337.8z M260.212,55.203
			c-3.009,0-5.457,2.448-5.457,5.458v271.432c0,3.01,2.448,5.458,5.457,5.458H453.31c3.01,0,5.458-2.448,5.458-5.458V60.66
			c0-3.009-2.448-5.458-5.458-5.458H260.212z"/>
	</g>
	<g>
		<rect x="268.543" y="109.894" style="fill:#E0E0E0;" width="177.112" height="103.947"/>
		<rect x="272.22" y="113.663" style="fill:#EBEBEB;" width="169.758" height="96.409"/>
		<g>
			<g>
				<g>
					<path style="fill:#E0E0E0;" d="M124.129,348.741c0.011-0.353,1.201-35.462,6.912-41.015c5.554-5.399,11.929-0.201,12.197,0.023
						l0.573-0.686c-0.072-0.061-7.266-5.934-13.393,0.023c-5.967,5.803-7.135,40.168-7.181,41.628L124.129,348.741z"/>
				</g>
				<g>
					<path style="fill:#E0E0E0;" d="M123.639,355.641c0.041-0.42,3.903-42.148-11.336-59.638l-0.674,0.586
						c14.986,17.2,11.161,58.548,11.121,58.964L123.639,355.641z"/>
				</g>
				<g>
					<path style="fill:#E0E0E0;" d="M124.203,351.227l0.892-0.059c-0.032-0.473-2.983-47.439,8.196-57.721l-0.605-0.658
						C121.194,303.359,124.074,349.277,124.203,351.227z"/>
				</g>
				<g>
					<path style="fill:#E0E0E0;" d="M122.748,351.201l0.894-0.007c-0.011-1.293-0.369-31.724-9.013-36.677
						c-1.922-1.103-3.803-1.286-5.593-0.546c-5.227,2.162-7.817,11.464-7.925,11.859l0.862,0.236
						c0.025-0.092,2.583-9.275,7.405-11.268c1.52-0.628,3.137-0.462,4.806,0.495C122.387,319.992,122.745,350.889,122.748,351.201z"
						/>
				</g>
				<g>
					<path style="fill:#E0E0E0;" d="M126.114,351.223l0.892-0.051c-0.014-0.24-1.304-24.047,5.121-32.435
						c1.557-2.032,3.247-3.001,5.032-2.876c4.21,0.294,7.74,6.455,7.775,6.517l0.779-0.44c-0.153-0.271-3.8-6.64-8.49-6.968
						c-2.098-0.149-4.053,0.937-5.805,3.224C124.791,326.845,126.057,350.232,126.114,351.223z"/>
				</g>
				<g>
					<path style="fill:#E0E0E0;" d="M124.705,354.461c0.175-2.309,4.2-56.669-2.882-66.248l-0.718,0.531
						c6.886,9.314,2.752,65.087,2.709,65.649L124.705,354.461z"/>
				</g>
			</g>
			<g>
				<path style="fill:#EBEBEB;" d="M107.11,319.48c0,0,4.249,1.566,2.986,5.264c-1.263,3.698-14.698,9.784-14.698,9.784
					s-5.627-5.158-0.459-13.545C100.105,312.596,106.995,316.834,107.11,319.48z"/>
			</g>
			<g>
				<path style="fill:#EBEBEB;" d="M125.58,312.441c0,0-4.524-0.189-4.781,3.71c-0.257,3.899,9.801,14.687,9.801,14.687
					s7.178-2.595,5.636-12.325C134.695,308.782,126.705,310.043,125.58,312.441z"/>
			</g>
			<g>
				<path style="fill:#EBEBEB;" d="M129.411,293.776c0,0-3.016-0.324-2.774-2.161c0.243-1.837,11.726-6.566,18.501,1.081
					c0,0-4.338,7.452-10.609,7.549C128.258,300.342,129.411,293.776,129.411,293.776z"/>
			</g>
			<g>
				<path style="fill:#EBEBEB;" d="M123.79,289.314c0,0,2.731,1.32,3.497-0.367c0.766-1.688-6.479-11.774-16.273-8.868
					c0,0-0.259,8.619,5.011,12.018C121.296,295.496,123.79,289.314,123.79,289.314z"/>
			</g>
			<g>
				<path style="fill:#EBEBEB;" d="M138.071,317.994c0,0-2.082-1.681,0.165-2.501c2.247-0.82,13.27-0.587,13.385,10.332
					c0,0-12.839,2.134-14.428-2.026C135.604,319.64,138.071,317.994,138.071,317.994z"/>
			</g>
			<g>
				<path style="fill:#EBEBEB;" d="M111.89,293.502c0,0,2.082-1.681-0.165-2.501c-2.247-0.82-13.27-0.587-13.385,10.332
					c0,0,12.839,2.134,14.428-2.026C114.358,295.148,111.89,293.502,111.89,293.502z"/>
			</g>
			<g>
				<path style="fill:#EBEBEB;" d="M118.678,302.298c0,0,0.183-2.043-1.466-1.242c-1.65,0.801-7.396,7.001-1.439,12.884
					c0,0,8.019-5.939,6.573-9.032C120.9,301.816,118.678,302.298,118.678,302.298z"/>
			</g>
			<g>
				<path style="fill:#EBEBEB;" d="M139.932,305.21c0,0-1.244-1.631,0.578-1.833c1.823-0.202,9.99,1.978,8.088,10.132
					c0,0-9.951-0.748-10.377-4.135C137.795,305.987,139.932,305.21,139.932,305.21z"/>
			</g>
			<polygon style="fill:#F0F0F0;" points="106.316,381.467 140.457,381.467 144.141,344.087 102.632,344.087 			"/>
			
				<rect x="100.81" y="339.963" transform="matrix(-1 -1.224647e-16 1.224647e-16 -1 246.7729 688.1734)" style="fill:#E6E6E6;" width="45.154" height="8.248"/>
		</g>
		<g>
			<g>
				<polygon style="fill:#E0E0E0;" points="161.323,102.844 128.093,83.512 102.491,83.512 68.711,101.928 68.711,227.216 
					161.323,227.216 				"/>
			</g>
			<g>
				<g>
					<g>
						<path style="fill:#FAFAFA;" d="M67.757,102.844l0.953-0.916c12.357-11.876,28.633-18.415,45.829-18.416c0.001,0,0,0,0,0
							c17.196,0,33.473,6.541,45.829,18.416l0.953,0.916v124.372H67.757V102.844z M155.116,105.507
							c-11.072-10.191-25.429-15.788-40.576-15.788c-15.147,0-29.504,5.597-40.576,15.788v115.502h81.152V105.507z"/>
					</g>
				</g>
				<polygon style="fill:#F0F0F0;" points="116.868,221.756 112.213,221.756 112.213,180.177 72.788,180.177 72.788,175.522 
					112.213,175.522 112.213,132.994 72.788,132.994 72.788,128.339 112.213,128.339 112.213,88.915 116.868,88.915 
					116.868,128.339 156.292,128.339 156.292,132.994 116.868,132.994 116.868,175.522 156.292,175.522 156.292,180.177 
					116.868,180.177 				"/>
				<g>
					<path style="fill:#F0F0F0;" d="M64.654,101.577l0.909-0.909c27.006-27.005,70.948-27.005,97.954,0l0.909,0.909v128.742H64.654
						V101.577z M158.219,104.166c-24.348-23.4-63.01-23.4-87.358,0v119.947h87.358V104.166z"/>
				</g>
			</g>
		</g>
		<g>
			<circle style="fill:#E0E0E0;" cx="417.484" cy="64.446" r="22.17"/>
			<circle style="fill:#F0F0F0;" cx="417.484" cy="64.446" r="18.85"/>
			<g>
				<polyline style="fill:#F0F0F0;" points="416.594,77.377 416.594,64.199 407.862,69.141 				"/>
				<path style="fill:#E0E0E0;" d="M416.594,78.048c-0.371,0-0.671-0.301-0.671-0.671V65.351l-7.73,4.374
					c-0.323,0.181-0.733,0.07-0.915-0.253c-0.183-0.323-0.069-0.732,0.253-0.915l8.733-4.942c0.207-0.118,0.463-0.116,0.668,0.004
					c0.207,0.121,0.333,0.341,0.333,0.58v13.178C417.266,77.748,416.965,78.048,416.594,78.048z"/>
			</g>
		</g>
	</g>
</g>
<g id="Background_Simple" style="display:none;">
	<g style="display:inline;">
		<path style="fill:#407BFF;" d="M305.866,81.915c-87.022-0.205-47.64,87.481-103.678,100.154
			c-56.038,12.674-153.007-75.212-146.861,26.364c7.219,119.314,235.826,206.702,337.292,110.303S392.888,82.12,305.866,81.915z"/>
		<path style="opacity:0.9;fill:#FFFFFF;" d="M305.866,81.915c-87.022-0.205-47.64,87.481-103.678,100.154
			c-56.038,12.674-153.007-75.212-146.861,26.364c7.219,119.314,235.826,206.702,337.292,110.303S392.888,82.12,305.866,81.915z"/>
	</g>
</g>
<g id="Shadow_1_">
	<ellipse id="_x3C_Path_x3E__359_" style="fill:#F5F5F5;" cx="245.526" cy="417.677" rx="217.032" ry="21.089"/>
</g>
<g id="Speech_bubble">
	<g>
		<path style="fill:#407BFF;" d="M369.174,124.605h-35.181c-6.681,0-12.097,5.416-12.097,12.097v14.599
			c0,6.681,5.416,12.097,12.097,12.097h24.201l7.666,8.772l0.471-8.772h2.843c6.681,0,12.096-5.416,12.096-12.097v-14.599
			C381.271,130.02,375.855,124.605,369.174,124.605z"/>
		<g>
			<path style="fill:#FFFFFF;" d="M337.875,144.166c0,1.349-1.094,2.443-2.443,2.443c-1.35,0-2.444-1.094-2.444-2.443
				c0-1.35,1.094-2.443,2.444-2.443C336.781,141.723,337.875,142.816,337.875,144.166z"/>
			<path style="fill:#FFFFFF;" d="M348.643,144.166c0,1.349-1.094,2.443-2.443,2.443c-1.35,0-2.443-1.094-2.443-2.443
				c0-1.35,1.094-2.443,2.443-2.443C347.549,141.723,348.643,142.816,348.643,144.166z"/>
			<path style="fill:#FFFFFF;" d="M359.411,144.166c0,1.349-1.094,2.443-2.444,2.443c-1.349,0-2.443-1.094-2.443-2.443
				c0-1.35,1.094-2.443,2.443-2.443C358.317,141.723,359.411,142.816,359.411,144.166z"/>
			<path style="fill:#FFFFFF;" d="M370.179,144.166c0,1.349-1.094,2.443-2.444,2.443c-1.349,0-2.443-1.094-2.443-2.443
				c0-1.35,1.094-2.443,2.443-2.443C369.085,141.723,370.179,142.816,370.179,144.166z"/>
		</g>
	</g>
</g>
<g id="Character_4">
	<g>
		<path style="fill:#D9877C;" d="M327.746,220.813l-2.463,4.794c-4.205,3.794-8.148-2.456-8.148-2.456l-3.11-2.239
			c-1.054-0.759-1.332-2.299-0.656-3.639l1.696-3.365c0.773-1.534,2.504-2.251,3.838-1.591l2.997,1.485
			c0.872,0.432,1.623,1.073,2.187,1.866L327.746,220.813z"/>
		<path style="fill:#D9877C;" d="M383.436,223.457c-5.658,8.323-16.894,22.747-26.584,26.024
			c-13.707,4.019-29.012-13.014-36.312-22.772c-2.99-4.256,2.161-9.467,6.433-6.601c6.578,4.546,19.684,13.284,24.235,13.485
			c6.095-5.773,11.652-14.054,16.918-20.825c3.091-4.16,8.99-5.007,13.125-1.881C385.191,213.862,386.091,219.382,383.436,223.457
			L383.436,223.457z"/>
		<path style="opacity:0.2;" d="M381.252,210.884c-4.12-3.11-9.97-2.29-13.08,1.83l-0.05,0.05l-4.89,6.48
			c-1.56,2.1-3.15,4.16-4.74,6.16c2.44,2.47,7.02,8.4-4.09,8.17c-0.81-0.02-1.6-0.01-2.37,0.02c-0.08,0.03-0.32,0.05-0.64,0.03
			c-9.7,0.47-17.14,4.09-19.8,5.56c0.36,0.34,0.73,0.68,1.1,1.01c2.31,2.08,4.8,4.02,7.69,5.86c1.46,0.9,3.04,1.75,4.88,2.51
			c1.85,0.73,3.96,1.45,6.81,1.55c1.42,0.04,3.05-0.1,4.78-0.63c0.43-0.14,0.88-0.31,1.29-0.47l0.95-0.44
			c0.34-0.15,0.6-0.3,0.86-0.44l0.78-0.44c1.9-1.15,3.33-2.24,4.65-3.36c2.6-2.23,4.81-4.41,6.88-6.69
			c2.09-2.25,4.02-4.56,5.88-6.89c1.85-2.38,3.58-4.68,5.29-7.3C386.092,219.384,385.192,213.864,381.252,210.884z"/>
		<g>
			<path style="fill:#407BFF;" d="M378.932,227.804c-1.63,4.52-4.09,8.35-6.68,11.48c-3.89,4.69-8.11,7.82-10.39,9.32
				c-1.06,0.7-1.7,1.05-1.7,1.05l-4.95-9.09c0,0,0,0,0-0.01l-4.38-8.03c0,0,0.39-0.61,1.08-1.64c3.47-5.11,14.61-20.64,24.04-23.52
				C375.952,207.364,384.152,213.374,378.932,227.804z"/>
			<path style="opacity:0.7;fill:#FFFFFF;" d="M378.932,227.804c-1.63,4.52-4.09,8.35-6.68,11.48c-3.89,4.69-8.11,7.82-10.39,9.32
				c-1.06,0.7-1.7,1.05-1.7,1.05l-4.95-9.09c0,0,0,0,0-0.01l-4.38-8.03c0,0,0.39-0.61,1.08-1.64c3.47-5.11,14.61-20.64,24.04-23.52
				C375.952,207.364,384.152,213.374,378.932,227.804z"/>
			<polygon style="fill:#407BFF;" points="362.452,249.654 358.482,250.884 354.402,242.954 349.042,232.524 351.602,230.324 
				351.912,230.884 356.132,238.384 361.862,248.604 			"/>
			<polygon style="opacity:0.6;fill:#FFFFFF;" points="362.452,249.654 358.482,250.884 354.402,242.954 349.042,232.524 
				351.602,230.324 351.912,230.884 356.132,238.384 361.862,248.604 			"/>
			<path style="opacity:0.1;" d="M361.862,248.604l0.59,1.05l-3.97,1.23l-4.08-7.93c0.24-0.81,0.51-1.6,0.81-2.39c0,0,0,0,0-0.01
				c0.29-0.73,0.59-1.46,0.92-2.17c4.52-10.05,12.56-17.44,12.56-17.44s2.34,9.22,3.56,18.34
				C368.362,243.974,364.142,247.104,361.862,248.604z"/>
		</g>
		<g>
			<polygon style="fill:#D9877C;" points="366.392,388.257 379.177,388.593 377.865,403.67 367.182,403.406 			"/>
			<polygon style="opacity:0.2;" points="366.395,388.262 379.184,388.598 378.447,397.041 366.835,396.746 			"/>
		</g>
		<g>
			<path style="fill:#263238;" d="M387.452,343.371c3.733-19.443,17.249-42.905,6.19-59.808l-35.259,5.593
				c0,0,0.842,33.394,1.746,51.298c0.938,18.616,4.799,53.663,4.799,53.663l14.643,0.169
				C379.572,394.286,387.668,364.911,387.452,343.371z"/>
		</g>
		<path style="fill:#263238;" d="M380.294,394.814l-15.825-0.144c-0.277-0.003-0.51-0.21-0.544-0.485l-0.716-5.819
			c-0.042-0.345,0.24-0.643,0.586-0.619l17.623,1.198c0.339,0.023,0.577,0.343,0.501,0.674l-1.083,4.765
			C380.78,394.637,380.554,394.816,380.294,394.814z"/>
		<path style="opacity:0.2;" d="M394.591,300.514c0.451,4.409,0.51,8.968,0.321,13.576c-1.353,6.128-3.187,12.296-4.809,18.267
			C386.427,315.98,385.179,296.699,394.591,300.514z"/>
		<path style="fill:#263238;" d="M378.831,401.75c-0.04-0.353-0.448-0.62-0.753-0.498c-3.206,1.274-9.29,0.298-11.596-0.144
			c-0.563-0.108-1.078,0.02-1.478,0.304c-2.454,1.74-8.987,2.801-8.987,2.801s-0.825,2.178-0.327,3.846l24.488-0.011
			C380.178,408.048,379.159,404.663,378.831,401.75z"/>
		<g>
			<polygon style="fill:#D9877C;" points="407.159,390.267 419.858,388.747 420.744,403.855 410.135,405.142 			"/>
			<polygon style="opacity:0.2;" points="407.163,390.272 419.866,388.751 420.36,397.212 408.827,398.602 			"/>
		</g>
		<g>
			<path style="fill:#263238;" d="M422.179,342.183c1.028-19.772,6.576-38.558,2.18-60.091l-38.418,10.381
				c0,0,5.419,32.963,8.773,50.573c3.485,18.311,12.122,52.496,12.122,52.496l14.528-1.843
				C421.365,393.698,425.351,363.49,422.179,342.183z"/>
		</g>
		<path style="fill:#263238;" d="M422.152,394.122l-15.695,2.03c-0.275,0.036-0.534-0.138-0.605-0.406l-1.508-5.666
			c-0.089-0.336,0.149-0.669,0.496-0.694l17.621-1.233c0.339-0.024,0.618,0.26,0.589,0.599l-0.418,4.868
			C422.61,393.88,422.41,394.088,422.152,394.122z"/>
		<path style="fill:#263238;" d="M421.107,401.75c-0.04-0.353-0.448-0.62-0.753-0.498c-3.206,1.274-9.29,0.298-11.596-0.144
			c-0.563-0.108-1.078,0.02-1.478,0.304c-2.454,1.74-8.988,2.801-8.988,2.801s-0.825,2.178-0.327,3.846l24.488-0.011
			C422.455,408.048,421.435,404.663,421.107,401.75z"/>
		<g>
			<path style="fill:#407BFF;" d="M426.337,271.239c-0.023,6.022-0.37,10.888-1.502,14.401c0,0-51.965,16.667-67.361,2.739
				c-4.716-33.992,6.646-62.679,11.859-74.653c1.664-3.826,5.189-6.507,9.327-7.073c10.518-1.422,24.596-1.734,35.576-0.543
				c5.502,0.601,9.778,3.363,11.038,11.708c0.312,2.034,0.439,4.392,0.358,7.131c-0.058,2.057-0.093,4.08-0.116,6.068
				c-0.081,9.847,0.254,18.84,0.52,26.699C426.211,262.698,426.349,267.229,426.337,271.239z"/>
			<g style="opacity:0.7;">
				<path style="fill:#FFFFFF;" d="M426.342,271.244c-0.03,6.02-0.37,10.88-1.51,14.4c0,0-51.96,16.66-67.36,2.74
					c-4.71-34,6.65-62.68,11.86-74.66c1.67-3.82,5.19-6.5,9.33-7.07c10.52-1.42,24.59-1.73,35.57-0.54
					c5.51,0.6,9.78,3.36,11.04,11.7c0.31,2.04,0.44,4.39,0.36,7.13v0.06c-0.06,2.03-0.09,4.05-0.11,6.01
					c-0.04,4.45,0.01,8.73,0.1,12.8c0.1,4.95,0.27,9.59,0.42,13.9C426.212,262.694,426.352,267.224,426.342,271.244z"/>
			</g>
			<path style="opacity:0.1;" d="M425.632,224.944v0.06c-0.06,2.03-0.09,4.05-0.11,6.01c-0.04,4.45,0.01,8.73,0.1,12.8
				c-6.49,8.17-21.5,12-26.62,7.93c-5.21-4.13-11.75-12.91-11.75-12.91s4.21-6.13,15.16-14.74
				C402.732,226.134,425.632,222.224,425.632,224.944z"/>
		</g>
		<path style="opacity:0.1;fill:#FFFFFF;" d="M380.294,394.814l-15.825-0.144c-0.277-0.003-0.51-0.21-0.544-0.485l-0.716-5.819
			c-0.042-0.345,0.24-0.643,0.586-0.619l17.623,1.198c0.339,0.023,0.577,0.343,0.501,0.674l-1.083,4.765
			C380.78,394.637,380.554,394.816,380.294,394.814z"/>
		<path style="opacity:0.1;fill:#FFFFFF;" d="M422.152,394.122l-15.695,2.03c-0.275,0.036-0.534-0.138-0.605-0.406l-1.508-5.666
			c-0.089-0.336,0.149-0.669,0.496-0.694l17.621-1.233c0.339-0.024,0.618,0.26,0.589,0.599l-0.418,4.868
			C422.61,393.88,422.41,394.088,422.152,394.122z"/>
		<g>
			<path style="fill:#407BFF;" d="M384.534,211.119c1.014,3.145,2.23,4.723,2.23,4.723l1.068,3.602l2.486,0.105l2.854-3.196
				c0,0,3.021-1.175,7.319-5.319l-0.885-1.362c-3.583,3.702-7.134,5.83-7.134,5.83l-5.045-0.085c0,0-1.106-2.681-1.301-4.723
				L384.534,211.119z"/>
			<path style="fill:#407BFF;" d="M390.341,218.917c0,0-2.911,11.922-2.748,23.061l-3.03,2.397l-2.374-2.397
				c0,0,3.36-16.361,5.792-23.291L390.341,218.917z"/>
			<g>
				<path style="fill:#D9877C;" d="M396.622,214.264l-12.19-2.68v-2.56c0.7-0.28,1.31-0.59,1.65-1.66c0.01-0.06,0.03-0.12,0.05-0.19
					c0.06-0.47,0.02-1.61,0.02-1.61c-0.08-1.14-0.43-2.12-1.15-3.34l14.6-9.11l2.32-1.45c0.01-0.01,0.01-0.01,0.01-0.01
					c0.06,6.47,0.12,11.58,3.15,13.96C405.812,208.714,402.412,212.084,396.622,214.264z"/>
				<path style="opacity:0.2;" d="M401.922,191.664c-0.18,0.49-3.506,15.138-15.84,15.7c0.01-0.06,0.03-0.12,0.05-0.19
					c0.06-0.47,0.02-1.61,0.02-1.61c-0.08-1.14-0.43-2.12-1.15-3.34l14.6-9.11L401.922,191.664z"/>
			</g>
			<path style="fill:#407BFF;" d="M403.281,200.816c0,0-4.457,7.137-13.399,11.393c0,0-4.122-2.915-3.731-6.644
				c0,0-4.197,3.78-3.962,12.253l5.506-4.739l2.325,2.177l2.54-1.973l3.516,5.631c0,0,8.584-3.805,13.713-13.443L403.281,200.816z"
				/>
			<path style="opacity:0.6;fill:#FFFFFF;" d="M403.281,200.816c0,0-4.457,7.137-13.399,11.393c0,0-4.122-2.915-3.731-6.644
				c0,0-4.197,3.78-3.962,12.253l5.506-4.739l2.325,2.177l2.54-1.973l3.516,5.631c0,0,8.584-3.805,13.713-13.443L403.281,200.816z"
				/>
		</g>
		<g>
			<path style="fill:#263238;" d="M387.123,174.438c0,0-4.343-0.458-5.231,2.566c-0.888,3.025,1.7,6.245,1.7,6.245l4.199-4.844
				L387.123,174.438z"/>
			<path style="fill:#D9877C;" d="M389.656,173.658c8.456-1.88,15.765,5.132,14.137,12.79c-1.629,7.659-2.912,12.826-8.205,15.439
				c-10.517,5.192-15.66,0.2-16.528-7.803C378.279,186.88,381.073,175.566,389.656,173.658z"/>
			<path style="opacity:0.2;" d="M391.329,187.255c0,0,1.725-0.456,2.926,0.423C392.621,187.766,391.329,187.255,391.329,187.255z"
				/>
			<path style="opacity:0.2;" d="M391.275,187.958c0,0,1.626-0.08,2.472,1.034C392.289,188.732,391.275,187.958,391.275,187.958z"/>
			<path style="fill:#263238;" d="M389.95,187.337c-0.094,0.677-0.53,1.172-0.972,1.106c-0.442-0.066-0.724-0.668-0.63-1.344
				c0.094-0.677,0.53-1.172,0.972-1.106C389.763,186.059,390.045,186.661,389.95,187.337z"/>
			<path style="fill:#263238;" d="M382.002,186.281c-0.095,0.677-0.53,1.172-0.972,1.106c-0.442-0.066-0.724-0.668-0.63-1.344
				c0.094-0.677,0.53-1.172,0.972-1.106C381.814,185.003,382.096,185.605,382.002,186.281z"/>
			<path style="fill:#DE5753;" d="M384.626,187.007l-0.375,5.727c0,0-1.875,0.323-2.895-0.757
				C382.185,189.09,384.626,187.007,384.626,187.007z"/>
			<path style="fill:#263238;" d="M392.566,185.781c0.065,0.016,0.134,0.017,0.203-0.003c0.213-0.059,0.337-0.281,0.276-0.495
				c-0.603-2.147-2.362-2.734-2.436-2.758c-0.212-0.068-0.436,0.049-0.501,0.261c-0.066,0.211,0.051,0.437,0.261,0.505l0,0
				c0.058,0.019,1.424,0.491,1.906,2.205C392.316,185.643,392.431,185.747,392.566,185.781z"/>
			<path style="fill:#263238;" d="M380.244,183.672c0.13,0.007,0.26-0.05,0.342-0.162c1.044-1.423,2.488-1.367,2.549-1.364
				c0.221,0.011,0.409-0.158,0.419-0.378c0.01-0.221-0.158-0.41-0.379-0.423c-0.08-0.003-1.931-0.096-3.238,1.688
				c-0.13,0.178-0.091,0.429,0.088,0.562C380.091,183.642,380.167,183.668,380.244,183.672z"/>
			<path style="fill:#263238;" d="M396.995,190.239c1.052-2.095,0.645-5.287,0-8.154c-0.645-2.867,2.002-3.605,2.002-3.605
				s-0.286-2.365-4.418-3.024c-2.464-0.393-4.712-0.886-5.966,0.442c-1.254,1.328-2.961,1.109-3.404-0.442
				c-0.443-1.55-1.195-4.771,3.94-5.411c5.135-0.64,4.766,2.828,6.684,2.754c1.918-0.074,6.961,0.885,9.345,5.386
				c2.385,4.5-1.599,11.708-1.599,11.708s-4.131,0.66-5.164,2.886C397.383,195.005,396.995,190.239,396.995,190.239z"/>
			<path style="fill:#D9877C;" d="M405.726,193.288c-1.152,1.601-2.94,2.513-4.55,2.74c-2.421,0.34-3.331-1.906-2.405-4.025
				c0.833-1.907,3.096-4.382,5.404-3.75C406.45,188.876,407.043,191.458,405.726,193.288z"/>
			<g>
				<path style="fill:#263238;" d="M380.829,197.494c0,0,0.637-3.043,1.855-3.884s5.191-0.012,5.191-0.012l-0.066,0.697
					c0,0-2.166-0.35-2.851-0.272c-0.684,0.078-1.282,4.234,0.419,5.324c1.701,1.09,3.394,0.067,3.418-0.269
					c0.024-0.336-0.155-0.556-0.155-0.556l1.291-0.408c0,0-0.066,0.446,0.482,0.837c0.548,0.391,2.509-0.55,3.191-1.839
					c0.682-1.289-0.736-4.672-1.277-4.78c-0.542-0.108-3.303,1.715-3.303,1.715l0.069-0.723c0,0,1.944-1.793,3.314-1.831
					s2.509,1.317,2.912,1.381c0.403,0.064,1.676-2.635,1.676-2.635l1.776,1.765c0,0,1.745,8.661-4.469,11.515
					c-6.214,2.854-15.344,1.934-14.907-7.367L380.829,197.494z"/>
				<path style="fill:#263238;" d="M380.829,197.494c0,0,0.637-3.043,1.855-3.884s5.191-0.012,5.191-0.012l-0.066,0.697
					c0,0-2.166-0.35-2.851-0.272c-0.684,0.078-1.282,4.234,0.419,5.324c1.701,1.09,3.394,0.067,3.418-0.269
					c0.024-0.336-0.155-0.556-0.155-0.556l1.291-0.408c0,0-0.066,0.446,0.482,0.837c0.548,0.391,2.509-0.55,3.191-1.839
					c0.682-1.289-0.736-4.672-1.277-4.78c-0.542-0.108-3.303,1.715-3.303,1.715l0.069-0.723c0,0,1.944-1.793,3.314-1.831
					s2.509,1.317,2.912,1.381c0.403,0.064,1.676-2.635,1.676-2.635l1.776,1.765c0,0,1.745,8.661-4.469,11.515
					c-6.214,2.854-15.344,1.934-14.907-7.367L380.829,197.494z"/>
			</g>
			<g>
				<path style="fill:#263238;" d="M385.005,195.403c0.727,1.038,1.539,3.06,1.539,3.06c0.238-0.045,0.476-0.09,0.712-0.145
					c3.217-0.676,4.534-1.869,5.019-2.985c0.262-0.611,0.267-1.206,0.197-1.675c-0.075-0.544-0.277-0.906-0.277-0.906
					c-1.538,1.201-4.498,2.022-6.096,2.407C385.431,195.325,385.005,195.403,385.005,195.403z"/>
				<path style="fill:#FFFFFF;" d="M386.099,195.158l0.483,0.89c3.029-0.643,5.093-1.432,5.89-2.391
					c-0.075-0.544-0.277-0.906-0.277-0.906C390.658,193.951,387.697,194.773,386.099,195.158z"/>
				<path style="fill:#DE5753;" d="M387.257,198.317c3.217-0.676,4.534-1.869,5.019-2.985c-1.089,0.265-2.378,0.685-3.455,1.337
					C387.994,197.163,387.531,197.757,387.257,198.317z"/>
			</g>
		</g>
		<path style="fill:#D9877C;" d="M425.667,223.182c-3.813,7.202-8.19,13.835-13.606,19.995c-3.56,4.031-8.195,8.208-13.762,9.166
			c-4.493,0.858-9.536,0.473-13.578-0.036c-9.435-1.329-18.405-3.747-27.269-7.12c-4.915-1.945-3.321-9.265,1.917-9.026
			c5.909,0.311,11.926,0.714,17.746,0.917c5.728,0.076,12.102,0.507,17.376-0.93c0.103-0.036,0.674-0.292,0.354-0.247
			c0.042-0.143,0.538-0.593,0.678-0.77c5.031-5.806,9.629-14.259,13.779-20.94c2.624-4.501,8.448-5.989,12.905-3.285
			C426.428,213.462,427.888,218.858,425.667,223.182L425.667,223.182z"/>
		<path style="fill:#D9877C;" d="M358.656,236.349l1.51,5.174c-0.443,5.646-7.604,3.821-7.604,3.821l-3.798,0.513
			c-1.287,0.174-2.548-0.753-2.979-2.19l-1.083-3.609c-0.494-1.645,0.269-3.357,1.692-3.794l3.196-0.983
			c0.93-0.286,1.917-0.338,2.871-0.15L358.656,236.349z"/>
		<g>
			<path style="fill:#407BFF;" d="M417.484,206.801c13.263,4.658,12.114,14.615,8.547,22.275
				c-3.377,7.251-18.263,22.667-18.263,22.667l-15.296-17.074c0,0,8.331-8.373,12.707-15.983
				C409.555,211.076,417.484,206.801,417.484,206.801z"/>
			<path style="opacity:0.7;fill:#FFFFFF;" d="M417.484,206.801c13.263,4.658,12.114,14.615,8.547,22.275
				c-3.377,7.251-18.263,22.667-18.263,22.667l-15.296-17.074c0,0,8.331-8.373,12.707-15.983
				C409.555,211.076,417.484,206.801,417.484,206.801z"/>
			<polygon style="fill:#407BFF;" points="391.346,235.684 393.747,232.523 409.53,251.085 404.678,253.206 			"/>
			<polygon style="opacity:0.6;fill:#FFFFFF;" points="391.346,235.684 393.747,232.523 409.53,251.085 404.678,253.206 			"/>
		</g>
	</g>
</g>
<g id="Podium">
	<g>
		<g>
			<path style="fill:#263238;" d="M347.529,213.784l-2.991,1.23c-1.043,0.429-2.237-0.069-2.666-1.112l0,0
				c-0.429-1.043,0.069-2.237,1.112-2.666l2.991-1.23c1.043-0.429,2.237,0.069,2.666,1.112l0,0
				C349.07,212.161,348.572,213.355,347.529,213.784z"/>
			<g>
				<g>
					<path style="fill:#263238;" d="M324.832,248.144c-0.112,0-0.225-0.019-0.336-0.059c-0.52-0.186-0.791-0.758-0.605-1.277
						l9.99-27.973c0.669-1.87,2.098-3.392,3.923-4.173l4.867-2.086c0.508-0.219,1.096,0.018,1.313,0.525
						c0.218,0.508-0.018,1.096-0.525,1.313l-4.867,2.086c-1.315,0.564-2.346,1.66-2.827,3.008l-9.99,27.973
						C325.628,247.889,325.243,248.144,324.832,248.144z"/>
				</g>
				<g style="opacity:0.3;">
					<path style="fill:#FFFFFF;" d="M324.832,248.144c-0.112,0-0.225-0.019-0.336-0.059c-0.52-0.186-0.791-0.758-0.605-1.277
						l9.99-27.973c0.669-1.87,2.098-3.392,3.923-4.173l4.867-2.086c0.508-0.219,1.096,0.018,1.313,0.525
						c0.218,0.508-0.018,1.096-0.525,1.313l-4.867,2.086c-1.315,0.564-2.346,1.66-2.827,3.008l-9.99,27.973
						C325.628,247.889,325.243,248.144,324.832,248.144z"/>
				</g>
			</g>
		</g>
		<g>
			<path style="fill:#263238;" d="M327.528,213.784l-2.991,1.23c-1.043,0.429-2.237-0.069-2.666-1.112l0,0
				c-0.429-1.043,0.069-2.237,1.112-2.666l2.991-1.23c1.043-0.429,2.237,0.069,2.666,1.112l0,0
				C329.069,212.161,328.571,213.355,327.528,213.784z"/>
			<g>
				<g>
					<path style="fill:#263238;" d="M304.831,248.144c-0.112,0-0.225-0.019-0.336-0.059c-0.52-0.186-0.791-0.758-0.605-1.277
						l9.99-27.973c0.668-1.87,2.098-3.392,3.923-4.173l4.867-2.086c0.508-0.219,1.096,0.018,1.313,0.525
						c0.218,0.508-0.018,1.096-0.525,1.313l-4.867,2.086c-1.315,0.564-2.346,1.66-2.827,3.008l-9.99,27.973
						C305.627,247.889,305.241,248.144,304.831,248.144z"/>
				</g>
				<g style="opacity:0.3;">
					<path style="fill:#FFFFFF;" d="M304.831,248.144c-0.112,0-0.225-0.019-0.336-0.059c-0.52-0.186-0.791-0.758-0.605-1.277
						l9.99-27.973c0.668-1.87,2.098-3.392,3.923-4.173l4.867-2.086c0.508-0.219,1.096,0.018,1.313,0.525
						c0.218,0.508-0.018,1.096-0.525,1.313l-4.867,2.086c-1.315,0.564-2.346,1.66-2.827,3.008l-9.99,27.973
						C305.627,247.889,305.241,248.144,304.831,248.144z"/>
				</g>
			</g>
		</g>
		<g>
			<polygon style="fill:#263238;" points="283.114,250.436 283.114,235.684 324.69,250.592 386.127,250.592 386.127,265.344 
				324.69,265.344 			"/>
			<polygon style="opacity:0.2;fill:#FFFFFF;" points="283.114,250.436 283.114,235.684 324.69,250.592 386.127,250.592 
				386.127,265.344 324.69,265.344 			"/>
		</g>
		<polygon style="fill:#263238;" points="382.329,263.308 343.755,249.478 343.755,408.059 382.329,408.059 		"/>
		<rect x="286.761" y="249.478" style="fill:#263238;" width="56.994" height="158.581"/>
		<rect x="286.761" y="249.478" style="opacity:0.3;fill:#FFFFFF;" width="56.994" height="158.581"/>
		<polygon style="opacity:0.2;fill:#FFFFFF;" points="382.329,263.308 343.755,249.478 343.755,408.059 382.329,408.059 		"/>
		<rect x="290.75" y="258.291" style="opacity:0.2;" width="47.247" height="135.296"/>
		<rect x="286.761" y="249.269" style="opacity:0.2;" width="56.994" height="2.474"/>
		<rect x="283.114" y="398.324" style="fill:#263238;" width="102.539" height="9.735"/>
		<g>
			<polygon style="fill:#263238;" points="386.127,250.592 386.127,265.344 344.551,250.436 283.114,250.436 283.114,235.684 
				344.551,235.684 			"/>
			<polygon style="opacity:0.3;fill:#FFFFFF;" points="386.127,250.592 386.127,265.344 344.551,250.436 283.114,250.436 
				283.114,235.684 344.551,235.684 			"/>
			<rect x="283.114" y="235.684" style="opacity:0.2;fill:#FFFFFF;" width="61.437" height="14.752"/>
		</g>
		<polygon style="opacity:0.2;fill:#FFFFFF;" points="344.692,398.324 283.114,398.324 283.114,402.527 340.451,402.527 
			340.451,399.707 		"/>
		<polygon style="opacity:0.2;" points="342.292,403.192 385.653,403.192 385.653,401.557 		"/>
		<rect x="283.114" y="398.324" style="opacity:0.3;fill:#FFFFFF;" width="102.539" height="9.735"/>
		<rect x="276.637" y="403.192" style="fill:#263238;" width="115.153" height="4.868"/>
		<rect x="276.637" y="403.192" style="opacity:0.2;fill:#FFFFFF;" width="60.338" height="4.562"/>
		<rect x="276.637" y="403.192" style="opacity:0.3;fill:#FFFFFF;" width="115.153" height="4.868"/>
	</g>
</g>
<g id="Character_1">
	<g>
		<g>
			<polygon style="fill:#E4897B;" points="113.228,402.565 112.258,412.175 111.467,419.955 104.108,419.955 104.108,402.565 			"/>
			<polygon style="opacity:0.2;" points="113.228,402.565 112.258,412.175 104.108,412.675 104.108,402.565 			"/>
			<path style="fill:#263238;" d="M112.226,415.314h-9.178c-0.334,0-0.611,0.232-0.666,0.558l-1.232,7.262
				c-0.128,0.753,0.502,1.466,1.272,1.453c3.201-0.055,4.748-0.243,8.785-0.243c2.483,0,7.613,0.258,11.042,0.258
				c3.354,0,3.699-3.391,2.279-3.698c-6.367-1.377-8.838-3.276-10.949-5.087C113.198,415.489,112.715,415.314,112.226,415.314z"/>
			<path d="M99.236,341.375l3.704,69.744l11.404-0.808c0,0,9.362-64.102,5.106-70.519
				C115.196,333.375,99.236,341.375,99.236,341.375z"/>
			<polygon style="fill:#E4897B;" points="144.23,402.565 143.26,412.175 142.469,419.955 135.11,419.955 135.11,402.565 			"/>
			<polygon style="opacity:0.2;" points="144.23,402.565 143.26,412.175 135.11,412.675 135.11,402.565 			"/>
			<path style="fill:#263238;" d="M101.505,314.191l6.379,8.651c0,0,28.949-2.17,38.141,3.926
				c9.191,6.096-1.596,83.547-1.596,83.547l-11.213,0.992c0,0-1.48-66.822-2.846-67.186c-1.366-0.363-53.882,5.804-61.371,0
				c-7.489-5.804-1.764-32.511-1.764-32.511L101.505,314.191z"/>
			<path style="fill:#263238;" d="M143.228,415.314h-9.178c-0.334,0-0.611,0.232-0.666,0.558l-1.232,7.262
				c-0.128,0.753,0.502,1.466,1.273,1.453c3.201-0.055,4.748-0.243,8.785-0.243c2.483,0,7.613,0.258,11.042,0.258
				c3.354,0,3.699-3.391,2.279-3.698c-6.367-1.377-8.838-3.276-10.949-5.087C144.2,415.489,143.717,415.314,143.228,415.314z"/>
			<path style="fill:#407BFF;" d="M57.257,285.297l7.834,3.787l4.863,2.355l2.951-7.094l3.085-7.43l-2.605-13.543
				C65.389,266.833,57.257,285.297,57.257,285.297z"/>
			<path style="opacity:0.2;" d="M65.091,289.085l4.863,2.355l2.951-7.094c-0.605-4.018-1.115-7.43-1.115-7.43
				S66.1,281.981,65.091,289.085z"/>
			<g>
				<path style="fill:#263238;" d="M108.771,242.68c-0.028,0.579,0.257,1.063,0.636,1.081c0.379,0.018,0.708-0.437,0.735-1.016
					c0.027-0.579-0.257-1.063-0.636-1.081C109.127,241.646,108.798,242.101,108.771,242.68z"/>
				<path style="fill:#DE5753;" d="M108.975,243.741c0,0,1.158,3.403,2.531,5.084c-1.07,0.907-2.791,0.388-2.791,0.388
					L108.975,243.741z"/>
				<path style="fill:#263238;" d="M106.803,239.364c-0.08-0.021-0.153-0.07-0.202-0.145c-0.103-0.158-0.058-0.369,0.1-0.471
					c1.579-1.027,3.022-0.408,3.084-0.381c0.172,0.076,0.25,0.277,0.174,0.449c-0.076,0.172-0.279,0.248-0.448,0.174l0,0
					c-0.047-0.02-1.18-0.491-2.439,0.328C106.99,239.373,106.892,239.387,106.803,239.364z"/>
				<path style="fill:#E4897B;" d="M108.836,251.558c-0.235,0.815-0.566,1.572-0.974,2.273c-0.767,1.305-1.804,2.398-3.001,3.213
					c-1.276,0.868-2.733,1.424-4.234,1.618c-2.771,0.357-5.681-0.522-7.894-2.994c-3.42-3.817-3.115-8.003-3.209-15.134
					c-0.104-7.133,7.124-12.172,13.847-9.064C110.199,234.639,110.664,245.241,108.836,251.558z"/>
				<path style="fill:#263238;" d="M89.825,252.202c2.428,2.344,14.157-0.465,14.115-9.235c0,0,5.145-3.744,6.025-9.091
					c0.88-5.346-2.208-8.251-6.314-8.096c-3.62,0.137-3.989,2.007-3.989,2.007s-16.396-2.157-14.636,5.175
					C76.755,238.386,86.794,249.277,89.825,252.202z"/>
				<path style="fill:#E4897B;" d="M100.809,243.693c0.011,1.868,0.781,3.667,1.759,4.869c1.471,1.808,3.162,0.823,3.553-1.261
					c0.352-1.876,0.01-5.078-1.852-6.132C102.435,240.131,100.797,241.556,100.809,243.693z"/>
				<path style="opacity:0.2;" d="M107.861,253.831c-0.767,1.305-1.804,2.398-3.001,3.213c-1.276,0.868-2.733,1.424-4.234,1.618
					c-1.394-1.099-2.41-2.228-2.41-2.228l2.148-3.221C100.365,253.214,104.293,256.257,107.861,253.831z"/>
			</g>
			<path style="fill:#E4897B;" d="M87.253,263.373l3.588-10.591c0,0,6.141-2.64,11.257,1.014l-0.44,8.033L87.253,263.373z"/>
			<path style="fill:#407BFF;" d="M83.267,261.072l2.007-3.004c0,0,15.08-0.923,21.433,5.986
				C106.706,264.054,91.988,267.098,83.267,261.072z"/>
			<path style="opacity:0.2;" d="M83.267,261.072l2.007-3.004c0,0,15.08-0.923,21.433,5.986
				C106.706,264.054,91.988,267.098,83.267,261.072z"/>
			<g>
				<path style="fill:#407BFF;" d="M112.71,274.385c-0.05,0.16-0.11,0.33-0.17,0.51c-1.35,4.07-2.49,8.06-3.45,11.85
					c-0.67,2.63-1.26,5.16-1.79,7.57c-2.38,10.96-3.35,19.37-4.12,22.15c-5.6-0.03-26.66-0.07-38.16-0.1c1.66-34.38,8.37-53,8.37-53
					s9.95-4.98,26.85-2.08c6.09,1.04,14.3,4.49,14.3,4.49C112.4,270.485,114.26,269.755,112.71,274.385z"/>
			</g>
			<path style="opacity:0.2;" d="M112.71,274.385c-0.05,0.16-0.11,0.33-0.17,0.51c-1.35,4.07-2.49,8.06-3.45,11.85
				c-0.67,2.63-1.26,5.16-1.79,7.57c-2.61-6.86-1.1-18.05-1.1-18.05L112.71,274.385z"/>
			<path style="fill:#DC897C;" d="M104.63,267.999c5.705-6.487,12.245-13.087,18.013-19.522c1.794-4.033,2.753-9.993,3.856-14.77
				c0,0,2.993-14.452,2.993-14.452l4.948,0.499c-0.015,5.023-0.21,9.999-0.625,15.003c-0.531,5.597-0.899,10.92-2.592,16.488
				c-0.262,0.73-0.521,1.401-0.953,2.101c-2.505,3.701-5.442,7.005-8.281,10.385c-3.234,3.79-6.552,7.467-9.978,11.076
				L104.63,267.999L104.63,267.999z"/>
			<g>
				<path style="fill:#E4897B;" d="M129.207,221.738l-4.515-5.747l7.911-1.769c0,0,3.719,5.371,0.871,7.171L129.207,221.738z"/>
				<polygon style="fill:#E4897B;" points="126.43,209.449 131.152,209.591 132.603,214.222 124.692,215.991 				"/>
			</g>
			<path style="fill:#407BFF;" d="M101.702,275.825c-1.576-6.075,4.073-10.674,15.019-22.552l10.172,7.709
				c0,0-6.774,12.056-12.6,15.414C108.467,279.754,101.702,275.825,101.702,275.825z"/>
		</g>
		<g>
			<polygon style="fill:#263238;" points="89.983,353.552 87.813,424.602 90.876,424.602 94.451,353.552 			"/>
			<polygon style="fill:#263238;" points="100.236,355.169 127.664,355.169 136.344,424.602 139.898,424.602 131.898,350.233 
				100.236,350.972 			"/>
			<polygon style="fill:#263238;" points="98.236,350.972 59.37,350.972 57.37,350.972 48.827,424.602 50.758,424.602 
				51.137,421.931 50.827,424.602 52.759,424.602 62.579,355.339 94.536,355.339 94.791,424.602 96.791,424.602 96.945,424.602 
				98.945,424.602 100.236,350.972 			"/>
			<polygon style="opacity:0.2;fill:#FFFFFF;" points="96.945,424.602 98.236,350.972 57.37,350.972 48.827,424.602 50.758,424.602 
				60.579,355.339 94.536,355.339 94.791,424.602 			"/>
			<polygon style="opacity:0.2;fill:#FFFFFF;" points="127.664,355.169 129.898,355.169 138.366,424.602 136.344,424.602 			"/>
			<path style="fill:#263238;" d="M101.468,340.005l-8.605-71.294c-0.464-3.844-3.726-6.736-7.598-6.736H45.208
				c-1.006,0-1.821,0.815-1.821,1.821v74.189c0,7.724,6.261,13.985,13.985,13.985h44.677h35.44c0.484,0,0.876-0.392,0.876-0.876v0
				c0-3.461-2.806-6.267-6.267-6.267h-25.192C104.135,344.827,101.8,342.756,101.468,340.005z"/>
			<path style="opacity:0.7;fill:#FFFFFF;" d="M138.37,351.092c0,0.48-0.4,0.88-0.88,0.88H57.37c-7.72,0-13.98-6.26-13.98-13.99
				v-74.19c0-0.33,0.09-0.63,0.24-0.9c0.31-0.55,0.9-0.92,1.58-0.92h40.05c3.88,0,7.14,2.89,7.6,6.74l8.61,71.29
				c0.33,2.75,2.66,4.82,5.44,4.82h25.19c1.73,0,3.3,0.7,4.43,1.84C137.67,347.792,138.37,349.362,138.37,351.092z"/>
			<path style="opacity:0.2;" d="M108.37,351.972h-51c-7.72,0-13.98-6.26-13.98-13.99v-74.19c0-0.33,0.09-0.63,0.24-0.9h40.02
				c3.13,0,5.76,2.37,6.07,5.48l7.49,73.52C97.79,347.612,102.61,351.972,108.37,351.972z"/>
		</g>
	</g>
</g>
<g id="Character_2">
	<g>
		<g>
			<polygon style="fill:#EBB376;" points="217.29,401.714 218.702,411.269 219.839,419.005 212.703,420.807 208.448,403.945 			"/>
			<polygon style="opacity:0.2;" points="217.29,401.714 218.702,411.269 210.922,413.748 208.448,403.945 			"/>
			<path style="fill:#263238;" d="M220.555,415.314h-9.178c-0.334,0-0.611,0.232-0.666,0.558l-1.232,7.262
				c-0.128,0.753,0.502,1.466,1.273,1.453c3.201-0.055,4.748-0.243,8.785-0.243c2.483,0,7.613,0.258,11.042,0.258
				c3.354,0,3.699-3.391,2.279-3.698c-6.367-1.377-8.838-3.276-10.949-5.087C221.527,415.489,221.044,415.314,220.555,415.314z"/>
			<path style="fill:#407BFF;" d="M186.462,345.233l21.554,66.433l10.811-3.72c0,0-7.476-64.349-13.241-69.453
				C199.821,333.389,186.462,345.233,186.462,345.233z"/>
			<path style="opacity:0.3;fill:#FFFFFF;" d="M220.555,415.314h-9.178c-0.334,0-0.611,0.232-0.666,0.558l-1.232,7.262
				c-0.128,0.753,0.502,1.466,1.273,1.453c3.201-0.055,4.748-0.243,8.785-0.243c2.483,0,7.613,0.258,11.042,0.258
				c3.354,0,3.699-3.391,2.279-3.698c-6.367-1.377-8.838-3.276-10.949-5.087C221.527,415.489,221.044,415.314,220.555,415.314z"/>
			<path style="opacity:0.2;" d="M186.462,345.233l21.554,66.433l10.811-3.72c0,0-7.476-64.349-13.241-69.453
				C199.821,333.389,186.462,345.233,186.462,345.233z"/>
			<g>
				<path style="fill:#EBB376;" d="M194.331,291.993l4.749-5.107l2.839,7.195c0,0-4.512,4.301-6.631,1.883L194.331,291.993z"/>
				<polygon style="fill:#EBB376;" points="205.504,287.555 206.07,292.027 201.919,294.081 199.08,286.885 				"/>
			</g>
			<g style="opacity:0.1;">
				<path d="M194.331,291.993l4.749-5.107l2.839,7.195c0,0-4.512,4.301-6.631,1.883L194.331,291.993z"/>
				<polygon points="205.504,287.555 206.07,292.027 201.919,294.081 199.08,286.885 				"/>
			</g>
			<path style="fill:#E7B278;" d="M199.52,272.523c4.313,7.08,8.32,13.931,11.474,21.69c2.563,5.974-1.678,9.762-7.576,8.92
				c-6.479-0.864-12.135-3.117-17.944-5.722c0,0,1.468-4.752,1.468-4.752c3.872,0.551,7.797,1.154,11.567,1.59
				c2.317,0.196,4.526,0.6,6.533,0.183c-0.497,0.078-1.068,0.34-1.78,1.392c-0.457,0.769-0.617,1.641-0.467,2.479
				c0.056,0.263-0.244-0.492-0.3-0.581c-3.423-6.579-7.891-13.51-11.569-20.007C190.926,277.717,199.52,272.523,199.52,272.523
				L199.52,272.523z"/>
			<polygon style="fill:#EBB376;" points="239.558,402.565 238.588,412.175 237.798,419.955 230.438,419.955 230.438,402.565 			"/>
			<polygon style="opacity:0.2;" points="239.558,402.565 238.588,412.175 230.438,412.675 230.438,402.565 			"/>
			<path style="fill:#407BFF;" d="M196.833,314.191l6.379,8.651c0,0,28.949-2.17,38.141,3.926
				c9.191,6.096-1.596,83.547-1.596,83.547l-11.213,0.992c0,0-1.48-66.822-2.846-67.186c-1.366-0.363-53.882,5.804-61.371,0
				c-7.489-5.804-1.764-32.511-1.764-32.511L196.833,314.191z"/>
			<g>
				<path style="fill:#263238;" d="M182.877,239.158c0.048,0.578,0.394,1.02,0.772,0.988c0.378-0.032,0.644-0.526,0.596-1.103
					c-0.049-0.578-0.394-1.02-0.772-0.988C183.094,238.086,182.828,238.58,182.877,239.158z"/>
				<path style="fill:#D58745;" d="M183.218,240.182c0,0,1.594,3.222,3.176,4.708c-0.942,1.04-2.716,0.75-2.716,0.75
					L183.218,240.182z"/>
				<path style="fill:#263238;" d="M180.491,236.128c-0.082-0.01-0.161-0.049-0.219-0.117c-0.122-0.143-0.106-0.358,0.037-0.48
					c1.431-1.225,2.943-0.801,3.008-0.782c0.18,0.053,0.284,0.242,0.231,0.422c-0.053,0.18-0.244,0.282-0.421,0.231l0,0
					c-0.05-0.014-1.234-0.332-2.375,0.645C180.677,236.113,180.583,236.139,180.491,236.128z"/>
				<path style="fill:#EBB376;" d="M184.104,247.951c-0.126,0.839-0.355,1.632-0.668,2.381c-0.589,1.394-1.474,2.614-2.553,3.579
					c-1.151,1.028-2.523,1.77-3.986,2.159c-2.7,0.717-5.701,0.228-8.219-1.933c-3.891-3.336-4.137-7.526-5.166-14.583
					c-1.038-7.058,5.467-13.001,12.54-10.801C183.238,230.999,185.089,241.448,184.104,247.951z"/>
				<path style="opacity:0.2;" d="M183.437,250.332c-0.589,1.394-1.474,2.614-2.553,3.579c-1.151,1.028-2.523,1.77-3.986,2.159
					c-1.526-0.906-2.681-1.893-2.681-1.893l1.708-3.475C175.924,250.702,180.217,253.204,183.437,250.332z"/>
				<path style="fill:#263238;" d="M174.717,247.124c-0.436,3.335-5.479,1.357-8.751,3.317c0,0-5.643-2.63-8.695-16.786
					c-1.817-8.429,16.416-9.27,16.416-9.27s0.244-1.972-2.204-3.197c0,0,4.417-0.194,5.946,3.253c0,0,0.734-1.642-0.434-3.286
					c0,0,8.341,3.192,3.419,10.555c0,0-2.888-0.694-2.022,0.984c0.866,1.678,5.458,6.371-1.65,10.97
					C176.741,243.664,174.951,245.338,174.717,247.124z"/>
				<path style="fill:#EBB376;" d="M175.116,241.205c0.256,1.851,1.255,3.533,2.382,4.596c1.696,1.6,3.243,0.401,3.357-1.716
					c0.103-1.906-0.656-5.035-2.64-5.836C176.261,237.461,174.824,239.089,175.116,241.205z"/>
			</g>
			<path style="fill:#EBB376;" d="M180.23,265.091l-1.688-12.098c0,0-4.228-5.922-11.758-2.598l-0.269,10.028L180.23,265.091z"/>
			<path style="fill:#407BFF;" d="M162.594,261.072l2.007-3.004c0,0,15.08-0.923,21.433,5.986
				C186.034,264.054,171.315,267.098,162.594,261.072z"/>
			<path style="opacity:0.5;fill:#FFFFFF;" d="M162.594,261.072l2.007-3.004c0,0,15.08-0.923,21.433,5.986
				C186.034,264.054,171.315,267.098,162.594,261.072z"/>
			<g>
				<path style="fill:#407BFF;" d="M194.387,274.965c0.002,0.158-0.003,0.326-0.004,0.503c-0.03,4.014,0.125,7.949,0.394,11.687
					c0.183,2.594,0.414,5.089,0.666,7.466c1.175,10.809,2.934,19.103,3.066,21.845c-5.61-0.03-26.683-0.069-38.193-0.099
					c-9.493-33.906-8.824-52.27-8.824-52.27s8.334-4.911,26.175-2.051c6.427,1.026,15.757,4.428,15.757,4.428
					C192.812,271.119,194.435,270.399,194.387,274.965z"/>
			</g>
			<g style="opacity:0.7;">
				<path style="fill:#FFFFFF;" d="M198.512,316.465c-5.61-0.03-26.69-0.07-38.2-0.1c-9.49-33.91-8.82-52.27-8.82-52.27
					s8.34-4.91,26.18-2.05c6.42,1.03,15.75,4.43,15.75,4.43c-0.61,4.64,1.01,3.92,0.97,8.49c0,0.16-0.01,0.33-0.01,0.5
					c-0.03,3.45,0.09,6.84,0.3,10.09c0.03,0.54,0.06,1.07,0.1,1.6c0.12,1.74,0.26,3.44,0.42,5.09c0.08,0.81,0.16,1.6,0.24,2.38
					C196.621,305.425,198.381,313.725,198.512,316.465z"/>
			</g>
			<path style="fill:#263238;" d="M238.557,415.314h-9.178c-0.334,0-0.611,0.232-0.666,0.558l-1.232,7.262
				c-0.128,0.753,0.502,1.466,1.273,1.453c3.201-0.055,4.748-0.243,8.785-0.243c2.483,0,7.613,0.258,11.042,0.258
				c3.354,0,3.699-3.391,2.279-3.698c-6.367-1.377-8.838-3.276-10.949-5.087C239.529,415.489,239.045,415.314,238.557,415.314z"/>
			<path style="opacity:0.4;fill:#FFFFFF;" d="M238.557,415.314h-9.178c-0.334,0-0.611,0.232-0.666,0.558l-1.232,7.262
				c-0.128,0.753,0.502,1.466,1.273,1.453c3.201-0.055,4.748-0.243,8.785-0.243c2.483,0,7.613,0.258,11.042,0.258
				c3.354,0,3.699-3.391,2.279-3.698c-6.367-1.377-8.838-3.276-10.949-5.087C239.529,415.489,239.045,415.314,238.557,415.314z"/>
			<path style="opacity:0.2;" d="M195.202,292.245c-3-1.47-5.21-8.59-5.21-8.59s2.37,0.73,4.69,1.9c0.03,0.54,0.06,1.07,0.1,1.6
				C194.902,288.895,195.042,290.595,195.202,292.245z"/>
			<path style="fill:#407BFF;" d="M193.424,266.474c6.267,1.753,15.075,21.413,15.075,21.413s-3.702,6.092-9.319,6.429
				l-10.085-10.663L193.424,266.474z"/>
			<path style="opacity:0.7;fill:#FFFFFF;" d="M193.424,266.474c6.267,1.753,15.075,21.413,15.075,21.413s-3.702,6.092-9.319,6.429
				l-10.085-10.663L193.424,266.474z"/>
		</g>
		<g>
			<polygon style="fill:#263238;" points="185.311,353.552 183.141,424.602 186.205,424.602 189.779,353.552 			"/>
			<polygon style="fill:#263238;" points="195.565,355.169 222.992,355.169 231.673,424.602 235.226,424.602 227.226,350.233 
				195.565,350.972 			"/>
			<polygon style="fill:#263238;" points="193.564,350.972 154.699,350.972 152.699,350.972 144.156,424.602 146.087,424.602 
				146.465,421.931 146.156,424.602 148.087,424.602 157.907,355.339 189.865,355.339 190.12,424.602 192.12,424.602 
				192.273,424.602 194.273,424.602 195.565,350.972 			"/>
			<polygon style="opacity:0.2;fill:#FFFFFF;" points="192.273,424.602 193.564,350.972 152.699,350.972 144.156,424.602 
				146.087,424.602 155.907,355.339 189.864,355.339 190.12,424.602 			"/>
			<polygon style="opacity:0.2;fill:#FFFFFF;" points="222.992,355.169 225.226,355.169 233.694,424.602 231.673,424.602 			"/>
			<path style="fill:#263238;" d="M196.796,340.005l-8.605-71.294c-0.464-3.844-3.726-6.736-7.598-6.736h-40.056
				c-1.006,0-1.821,0.815-1.821,1.821v74.189c0,7.724,6.261,13.985,13.985,13.985h44.677h35.44c0.484,0,0.876-0.392,0.876-0.876v0
				c0-3.461-2.806-6.267-6.267-6.267h-25.192C199.463,344.827,197.128,342.756,196.796,340.005z"/>
			<path style="opacity:0.7;fill:#FFFFFF;" d="M233.699,351.092c0,0.48-0.4,0.88-0.88,0.88h-80.12c-7.72,0-13.98-6.26-13.98-13.99
				v-74.19c0-0.33,0.09-0.63,0.24-0.9c0.31-0.55,0.9-0.92,1.58-0.92h40.05c3.88,0,7.14,2.89,7.6,6.74l8.61,71.29
				c0.33,2.75,2.66,4.82,5.44,4.82h25.19c1.73,0,3.3,0.7,4.43,1.84C232.998,347.792,233.699,349.362,233.699,351.092z"/>
			<path style="opacity:0.2;" d="M203.699,351.972h-51c-7.72,0-13.98-6.26-13.98-13.99v-74.19c0-0.33,0.09-0.63,0.24-0.9h40.02
				c3.13,0,5.76,2.37,6.07,5.48l7.49,73.52C193.118,347.612,197.939,351.972,203.699,351.972z"/>
		</g>
	</g>
</g>
<g id="Character_3">
	<g>
		<g>
			<polygon style="fill:#B55B52;" points="281.794,415.88 288.335,417.573 293.069,402.706 286.529,401.013 			"/>
			<g>
				<polygon style="opacity:0.2;" points="293.067,402.71 290.437,410.972 284.082,408.685 286.523,401.016 				"/>
			</g>
			<path style="fill:#407BFF;" d="M283.473,404.699l8.134-51.147l-23.063-9.797l18.094-8.337c0,0,17.427,5.192,23.257,9.404
				c5.83,4.213-17.402,62.195-17.402,62.195L283.473,404.699z"/>
			<path style="opacity:0.6;fill:#FFFFFF;" d="M283.473,404.699l8.134-51.147l-23.063-9.797l18.094-8.337
				c0,0,17.427,5.192,23.257,9.404c5.83,4.213-17.402,62.195-17.402,62.195L283.473,404.699z"/>
			<path style="fill:#263238;" d="M289.3,414.855l-7.22-2.29c-0.263-0.083-0.538,0.03-0.663,0.273l-2.781,5.405
				c-0.289,0.561,0.029,1.278,0.638,1.46c2.532,0.755,3.796,0.994,6.971,2.001c1.953,0.62,5.924,2.102,8.621,2.958
				c2.638,0.837,3.756-1.744,2.715-2.34c-4.665-2.672-6.135-4.782-7.343-6.734C290.021,415.235,289.684,414.977,289.3,414.855z"/>
			<path style="fill:#407BFF;" d="M293.021,415.929c0.274-0.12,0.452-0.337,0.529-0.646c0.046-0.185,0.005-0.352-0.117-0.484
				c-0.63-0.683-3.652-0.197-3.995-0.14c-0.066,0.012-0.12,0.064-0.13,0.131c-0.011,0.067,0.02,0.134,0.08,0.166
				c0.509,0.281,1.237,0.645,1.945,0.87C291.969,416.029,292.591,416.117,293.021,415.929z M293.198,415.017
				c0.049,0.053,0.061,0.109,0.041,0.189c-0.052,0.211-0.165,0.352-0.346,0.431c-0.51,0.223-1.586-0.05-2.929-0.735
				C291.193,414.734,292.849,414.644,293.198,415.017z"/>
			<path style="fill:#407BFF;" d="M289.482,414.975c0.894-0.101,2.891-1.001,3.005-1.763c0.026-0.178-0.027-0.426-0.429-0.6
				c-0.041-0.018-0.083-0.033-0.123-0.046c-1.438-0.456-2.567,2.076-2.616,2.188c-0.023,0.052-0.016,0.113,0.017,0.159
				c0.02,0.027,0.048,0.047,0.08,0.057C289.437,414.976,289.459,414.978,289.482,414.975z M291.93,412.905
				c0.262,0.113,0.245,0.224,0.24,0.26c-0.068,0.457-1.472,1.216-2.424,1.439c0.321-0.617,1.171-2.026,2.097-1.733
				C291.872,412.881,291.901,412.892,291.93,412.905z"/>
			<polygon style="fill:#407BFF;" points="282.428,402.746 281.594,405.932 292.509,409.608 294.576,405.488 			"/>
			<polygon style="fill:#B55B52;" points="313.152,420.74 319.903,420.468 320.134,404.867 313.383,405.139 			"/>
			<path style="fill:#263238;" d="M319.985,417.162h-7.574c-0.276,0-0.504,0.191-0.55,0.461l-1.017,5.993
				c-0.105,0.622,0.414,1.21,1.05,1.199c2.642-0.045,3.918-0.2,7.249-0.2c2.049,0,6.282,0.213,9.112,0.213
				c2.768,0,3.052-2.798,1.881-3.052c-5.254-1.136-7.293-2.703-9.035-4.198C320.787,417.307,320.388,417.162,319.985,417.162z"/>
			<g>
				<polygon style="opacity:0.2;" points="320.132,404.872 320.005,413.542 313.261,413.19 313.378,405.144 				"/>
			</g>
			<path style="fill:#407BFF;" d="M324.131,417.927c0.225-0.197,0.329-0.458,0.309-0.776c-0.012-0.19-0.102-0.337-0.258-0.426
				c-0.807-0.46-3.541,0.916-3.85,1.074c-0.06,0.031-0.095,0.097-0.085,0.164c0.009,0.067,0.06,0.121,0.126,0.135
				c0.57,0.114,1.374,0.241,2.117,0.241C323.159,418.34,323.778,418.237,324.131,417.927z M324.025,417.004
				c0.062,0.035,0.091,0.086,0.096,0.168c0.014,0.217-0.051,0.385-0.199,0.515c-0.419,0.367-1.527,0.432-3.014,0.185
				C322.028,417.341,323.58,416.754,324.025,417.004z"/>
			<path style="fill:#407BFF;" d="M320.47,418.088c0.822-0.367,2.453-1.828,2.331-2.589c-0.029-0.177-0.154-0.398-0.591-0.443
				c-0.044-0.005-0.089-0.007-0.131-0.007c-1.508,0-1.819,2.755-1.832,2.876c-0.006,0.057,0.019,0.112,0.065,0.146
				c0.027,0.02,0.061,0.031,0.094,0.031C320.427,418.102,320.449,418.098,320.47,418.088z M322.177,415.374
				c0.284,0.029,0.302,0.139,0.308,0.176c0.073,0.456-1.036,1.604-1.875,2.105c0.119-0.685,0.503-2.286,1.475-2.286
				C322.115,415.369,322.146,415.371,322.177,415.374z"/>
			<path style="fill:#407BFF;" d="M280.031,308.662l5.225,11.121c0,0,33.896,1.283,42.184,14.869
				c3.339,5.473-6.975,77.029-6.975,77.029l-8.656-0.562c0,0-3.83-40.036-3.075-63.802c0,0-34.851,4.899-44.229,0.202
				c-9.377-4.698-12.696-13.634-11.675-25.889C253.852,309.375,280.031,308.662,280.031,308.662z"/>
			<path style="opacity:0.7;fill:#FFFFFF;" d="M280.031,308.662l5.225,11.121c0,0,33.896,1.283,42.184,14.869
				c3.339,5.473-6.975,77.029-6.975,77.029l-8.656-0.562c0,0-3.83-40.036-3.075-63.802c0,0-34.851,4.899-44.229,0.202
				c-9.377-4.698-12.696-13.634-11.675-25.889C253.852,309.375,280.031,308.662,280.031,308.662z"/>
			<path style="fill:#B55B52;" d="M253.901,280.034c-3.273,7.405-6.497,15.362-8.066,23.264c0.099-0.499-0.373-1.594-0.853-1.846
				c-0.193-0.14-0.276-0.155-0.291-0.147c0.339,0.199,1.225,0.268,1.775,0.287c5.858,0.011,12.023-1.342,17.909-2.373
				c0,0,1.219,3.845,1.219,3.845c-5.565,2.205-23.511,9.828-26.723,1.916c-0.511-1.291-0.382-2.296-0.221-3.442
				c1.221-8.917,4.128-16.965,7.914-25.038C246.564,276.5,253.901,280.034,253.901,280.034L253.901,280.034z"/>
			<path style="fill:#407BFF;" d="M240.78,285.895l9.952,6.063c0,0,0.542-0.578,1.319-1.558c1.592-2.017,4.145-5.737,4.85-9.576
				c0.229-1.165,0.264-2.339,0.074-3.481c-0.597-3.375-3.836-5.942-8.124-4.29C244.482,274.731,240.78,285.895,240.78,285.895z"/>
			<path style="opacity:0.2;" d="M252.05,290.4c1.592-2.017,4.145-5.737,4.85-9.576c-0.371-0.494-2.117-3.444-2.585-3.92
				C254.315,276.904,248.949,281.107,252.05,290.4z"/>
			<polygon style="fill:#407BFF;" points="309.894,408.076 310.062,411.366 321.578,411.569 322.302,407.017 			"/>
			<path style="fill:#263238;" d="M278.615,250.737c0.011,0.541,0.309,0.982,0.667,0.984c0.357,0.003,0.638-0.434,0.628-0.974
				c-0.011-0.541-0.309-0.982-0.667-0.984C278.886,249.76,278.605,250.196,278.615,250.737z"/>
			<path style="fill:#263238;" d="M279.086,249.791l1.306-0.364C280.392,249.427,279.738,250.436,279.086,249.791z"/>
			<path style="fill:#A02724;" d="M279.086,251.266c0,0,0.974,2.336,2.018,3.467c-0.708,0.661-1.942,0.347-1.942,0.347
				L279.086,251.266z"/>
			<path style="fill:#263238;" d="M279.279,247.135c-0.05,0.01-0.103,0.007-0.155-0.009c-1.364-0.436-2.297,0.257-2.336,0.287
				c-0.14,0.107-0.34,0.08-0.447-0.059c-0.107-0.14-0.082-0.339,0.056-0.447c0.049-0.038,1.226-0.931,2.921-0.39
				c0.168,0.054,0.261,0.233,0.207,0.401C279.488,247.034,279.391,247.114,279.279,247.135z"/>
			<path style="fill:#407BFF;" d="M251.682,335.418c19.368,4.723,37.281-7.665,37.281-7.665
				c-6.064-15.392-3.703-27.888-2.334-35.331c0.344-1.835,0.63-3.358,0.704-4.545c0.096-1.385,0.021-2.978-0.152-4.641
				c-0.682-6.539-0.644-10.697-0.644-10.697s-7.922-2.633-26.398-2.504c-0.296,0.002-0.583,0.106-0.874,0.159
				c-0.812,0.168-1.619,0.349-2.4,0.522c-0.534,0.119-1.05,0.247-1.548,0.384c-0.583,0.15-1.147,0.309-1.685,0.46
				c-2.85,0.804-4.835,1.511-4.835,1.511C257.695,294.841,247.338,319.364,251.682,335.418z"/>
			<path style="fill:#B55B52;" d="M260.291,249.112c0.545,6.646,0.633,9.467,4.092,12.902c5.204,5.168,13.323,3.276,14.793-3.342
				c1.323-5.957,0.21-15.825-6.417-18.518C266.232,237.499,259.746,242.466,260.291,249.112z"/>
			<path style="fill:#B55B52;" d="M273.595,250.155c0.21,1.194,0.965,2.364,1.807,3.157c1.266,1.194,2.389,0.608,2.448-0.714
				c0.053-1.19-0.543-3.245-2.011-3.966C274.392,247.92,273.355,248.789,273.595,250.155z"/>
			<path style="opacity:0.2;" d="M286.022,305.031c0.343-1.836,1.236-15.968,1.311-17.155c0.096-1.385,0.021-2.978-0.152-4.641
				c-3.584-2.628-6.077,4.778-6.077,4.778S277.853,296.075,286.022,305.031z"/>
			<path style="fill:#B55B52;" d="M290.864,281.102c0.435,8.713,1.268,17.598,3.089,26.156c0.278,1.21,1.894,2.66,3.046,3.602
				c5.127,4.019,11.402,6.991,17.317,9.789c0,0-1.333,4.075-1.333,4.075c-4.688-1.087-9.152-2.57-13.627-4.494
				c-5.16-2.481-11.282-5.234-13.085-11.425c-2.566-8.983-3.832-18.182-4.061-27.53C282.21,281.275,290.864,281.102,290.864,281.102
				L290.864,281.102z"/>
			<g>
				<path style="fill:#B55B52;" d="M312.966,320.231l5.656,1.975l-2.743,4.57c0,0-5.778-1.005-4.969-5.105L312.966,320.231z"/>
				<polygon style="fill:#B55B52;" points="320.489,324.263 319.161,328.494 315.879,326.775 318.622,322.206 				"/>
			</g>
			<path style="fill:#407BFF;" d="M286.537,272.539c3.842,1.092,8.571,13.096,8.478,17.165l-12.855,6.371
				c0,0-3.074-7.21-0.201-17.465C283.039,274.759,284.455,271.947,286.537,272.539z"/>
			<path style="fill:#263238;" d="M276.434,238.685c4.186,1.987,4.251,12.085-1.18,16.243c0,0-0.111,6.632,3.168,9.835
				c3.279,3.203,0.952,10.616-6.172,15.944c0,0,1.933-3.116,2.029-4.257c0,0-2.262,4.386-7.241,7.16
				c-4.979,2.774-3.83,6.281-3.83,6.281s-7.582-1.147-7.383-8.598c0,0-1.012,2.331,0.109,4.832c0,0-5.514-3.535-5.05-10.276
				c0.464-6.742,3.623-8.139,1.743-22.801C250.992,240.299,262.6,232.119,276.434,238.685z"/>
		</g>
		<g>
			<polygon style="fill:#263238;" points="273.22,353.552 271.049,424.602 274.113,424.602 277.688,353.552 			"/>
			<polygon style="fill:#263238;" points="283.473,355.169 310.901,355.169 319.581,424.602 323.135,424.602 315.135,350.233 
				283.473,350.972 			"/>
			<polygon style="fill:#263238;" points="281.473,350.972 242.607,350.972 240.607,350.972 232.064,424.602 233.995,424.602 
				234.374,421.931 234.064,424.602 235.995,424.602 245.816,355.339 277.773,355.339 278.028,424.602 280.028,424.602 
				280.182,424.602 282.182,424.602 283.473,350.972 			"/>
			<polygon style="opacity:0.2;fill:#FFFFFF;" points="280.182,424.602 281.473,350.972 240.607,350.972 232.064,424.602 
				233.995,424.602 243.815,355.339 277.773,355.339 278.028,424.602 			"/>
			<polygon style="opacity:0.2;fill:#FFFFFF;" points="310.901,355.169 313.135,355.169 321.603,424.602 319.581,424.602 			"/>
			<path style="fill:#263238;" d="M284.704,340.005l-8.605-71.294c-0.464-3.844-3.726-6.736-7.598-6.736h-40.056
				c-1.005,0-1.821,0.815-1.821,1.821v74.189c0,7.724,6.261,13.985,13.985,13.985h44.677h35.44c0.484,0,0.876-0.392,0.876-0.876v0
				c0-3.461-2.806-6.267-6.267-6.267h-25.192C287.372,344.827,285.037,342.756,284.704,340.005z"/>
			<path style="opacity:0.7;fill:#FFFFFF;" d="M321.607,351.092c0,0.48-0.4,0.88-0.88,0.88h-80.12c-7.72,0-13.98-6.26-13.98-13.99
				v-74.19c0-0.33,0.09-0.63,0.24-0.9c0.31-0.55,0.9-0.92,1.58-0.92h40.05c3.88,0,7.14,2.89,7.6,6.74l8.61,71.29
				c0.33,2.75,2.66,4.82,5.44,4.82h25.19c1.73,0,3.3,0.7,4.43,1.84C320.907,347.792,321.607,349.362,321.607,351.092z"/>
			<path style="opacity:0.2;" d="M291.607,351.972h-51c-7.72,0-13.98-6.26-13.98-13.99v-74.19c0-0.33,0.09-0.63,0.24-0.9h40.02
				c3.13,0,5.76,2.37,6.07,5.48l7.49,73.52C281.027,347.612,285.847,351.972,291.607,351.972z"/>
		</g>
	</g>
</g>
</svg>
