<?xml version="1.0" encoding="utf-8"?>
<!-- Generator: Adobe Illustrator 27.5.0, SVG Export Plug-In . SVG Version: 6.00 Build 0)  -->
<svg version="1.1" xmlns="http://www.w3.org/2000/svg" xmlns:xlink="http://www.w3.org/1999/xlink" x="0px" y="0px"
	 viewBox="0 0 1000 800" style="enable-background:new 0 0 1000 800;" xml:space="preserve">
<g id="background">
	<rect y="0" style="fill:transparent;" width="1000" height="800"/>
</g>
<g id="shadow">
	<g style="opacity:0.4;">
		<path style="fill:#F1F2F2;" d="M474.874,692.897c-24.313,0.052-48.626,0.47-72.895,2.403c-9.151,0.729-18.11,2.332-27.282,2.978
			c-18.32,1.291-36.312,3.7-54.697,4.811c-14.805,0.895-29.673,1.423-44.435,2.558c-13.84,1.064-29.163,0.819-42.896-0.94
			c-10.167-1.302-20.381-2.035-30.378-4.126c-11.183-2.339-23.331-4.012-34.983-3.951c-16.615,0.086-32.795,0.096-48.695,4.226
			c-5.582,1.45-12.414,3.833-16.653,6.876c-9.703,6.965-11.016,24.345-1.328,31.57c16.317,12.159,51.144,16.929,74.016,17.154
			c25.063,0.247,49.411-1.085,74.511-1.868c23.323-0.728,46.588-1.763,69.95-1.727c47.714,0.074,95.435,0,143.063-2.282
			c44.747-2.144,89.608-1.408,134.453-1.408c45.987,0,91.664,0.259,137.319,4.634c19.893,1.906,40.159,2.574,60.151,3.91
			c17.905,1.196,35.111-0.024,52.945-1.129c14.975-0.928,29.852-3.682,43.456-8.336c10.769-3.685,29.967-15.131,33.27-23.925
			c9.258-24.656-130.479-24.063-151.934-24.008c-24.001,0.062-48.193,0.627-72.176-0.028c-10.088-0.276-20.028-1.687-29.874-3.234
			c-9.807-1.541-19.688-1.149-29.633-1.796c-41.473-2.7-83.039-2.306-124.645-2.306C501.966,692.953,488.42,692.868,474.874,692.897
			z"/>
	</g>
</g>
<g id="object">
	<g>
		<g>
			<g>
				<polygon style="fill:#C48270;" points="245.67,289.21 240.242,276.937 234.895,279.029 236.752,288.256 233.764,288.072 
					239.689,298.008 245.54,296.584 				"/>
			</g>
			<g>
				<polygon style="fill:#474EBB;" points="205.19,384.063 246.293,354.772 236.554,295.316 248.309,293.084 275.365,360.733 
					217.127,412.337 				"/>
			</g>
		</g>
		<g>
			<g>
				<path style="fill:#333333;" d="M791.067,143.893c0-1.815,0-3.629,0-5.444l-2.522-5.13c-0.627-0.707-1.947-0.679-2.526,0.054
					l-2.111,5.076v5.444c-1.988,0-5.225,1.549-5.225,3.459c0,1.91,1.612,3.459,3.599,3.459h1.625V335.3
					c0,10.409-5.535,19.067-13.486,18.881c-6.161-0.144-11.535-5.351-12.44-13.851c-0.201-1.883-1.817-3.331-3.787-3.331h-0.142
					c-2.276,0-4.06,1.912-3.777,4.083c1.572,12.089,11.222,20.738,20.382,20.738c7.158,0,13.028-3.298,16.447-9.243
					c4.232-7.36,3.961-15.452,3.961-23.528c0-7.651,0-15.302,0-22.953c0-10.682,0-21.365,0-32.047c0-12.18,0-24.36,0-36.539
					c0-12.144,0-24.287,0-36.431c0-10.574,0-21.148,0-31.721c0-6.182,0-12.364,0-18.546h1.115c1.988,0,3.599-1.549,3.599-3.459
					C795.781,145.442,793.055,143.893,791.067,143.893z"/>
				<polygon style="opacity:0.26;" points="791.067,247.313 783.834,239.838 783.834,227.49 791.067,227.49 				"/>
			</g>
			<g>
				<path style="fill:#3B455A;" d="M740.961,245.279l1.111-6.796c3.846-23.54,12.946-45.924,26.63-65.511l17.294-24.753
					c-42.105,1.773-78.205,26.593-95.873,62.099c-5.391,10.835-9.059,22.666-10.665,35.139c9.111-2.709,19.663-4.263,30.953-4.263
					C721.453,241.194,731.873,242.68,740.961,245.279z"/>
				<path style="fill:#3B455A;" d="M831.41,231.614l2.964,14.589h1.109c9.633-3.168,21.047-5.009,33.337-5.009
					c12.248,0,23.731,1.828,33.479,4.976c-1.944-15.927-7.262-30.818-15.22-43.95c-19.649-32.424-55.401-54.111-96.252-54.111
					c-1.204,0-2.401,0.025-3.596,0.063l13.816,20.083C817.984,188.965,825.761,209.945,831.41,231.614z"/>
				<path style="fill:#FFFFFF;" d="M742.071,238.483l-1.111,6.796c0.1,0.029,0.199,0.058,0.298,0.086
					c11.658-5.153,27.635-8.109,45.282-8.109c18.582,0,35.351,3.277,47.172,8.946h0.661l-2.964-14.589
					c-5.65-21.669-13.426-42.649-30.362-63.359l-13.816-20.083c-0.413,0.013-0.825,0.029-1.237,0.047l-17.294,24.753
					C755.017,192.558,745.918,214.943,742.071,238.483z"/>
			</g>
		</g>
		<g>
			<g>
				<g>
					<g>
						<polygon style="fill:#EFD1B9;" points="622.73,395.203 617.09,389.88 617,383.042 615.541,382.324 614.585,384.085 
							612.886,378.43 608.896,375.775 602.935,378.041 599.516,383.673 602.393,389.353 608.736,393.49 616.141,401.111 						"/>
					</g>
					<polygon style="fill:#474EBB;" points="622.187,388.787 612.04,400.804 639.257,442.144 649.386,445.412 692.533,411.005 
						680.993,387.445 648.813,414.794 					"/>
				</g>
				<g>
					<g>
						<polygon style="fill:#282E3A;" points="759.102,713.366 760.608,720.278 748.669,730.12 740.439,724.674 745.656,716.297 
							757.595,706.455 						"/>
						<polygon style="fill:#3B455A;" points="717.346,500.849 730.669,531.571 731.926,618.01 759.32,710.985 746.582,716.634 
							690.68,608.676 684.318,574.482 681.789,502.467 						"/>
					</g>
					<g>
						<polygon style="fill:#3B455A;" points="652.842,507.734 651.794,598.321 668.865,715.12 681.991,715.12 690.281,607.349 
							708.243,499.577 						"/>
						<polygon style="fill:#282E3A;" points="681.915,713.558 681.915,720.655 667.721,727.752 660.624,720.655 667.721,713.558 
													"/>
					</g>
				</g>
				<path style="fill:#474EBB;" d="M678.69,385.072l34.867-1.291c0,0,20.858,18.301,31.638,65.859
					c10.977,48.426-2.027,118.139-2.027,118.139s-93.543-12.467-108.881-14.393l23.4-95.613L678.69,385.072z"/>
				<g>
					<path style="fill:#EFD1B9;" d="M691.185,388.634c4.072-0.398,8.143-0.796,12.215-1.194c0.044-3.262-0.173-6.528-0.649-9.756
						c3.395-1.188,7.318-2.972,7.914-6.52c0.188-1.117-0.004-2.259-0.195-3.376c-0.791-4.616-1.583-9.232-2.374-13.849
						c-0.274-1.596-0.565-3.24-1.431-4.609c-1.52-2.402-4.475-3.456-7.275-3.946c-7.145-1.25-14.935,0.288-20.482,4.961
						c-1.477,1.244-2.812,2.74-3.464,4.556c-1.006,2.801-0.261,5.894,0.491,8.773c0.694,2.658,1.388,5.316,2.083,7.975
						c0.798,3.057,1.952,6.534,4.896,7.684c1.563,0.611,3.409,0.435,4.823,1.338C690.231,382.262,689.89,385.974,691.185,388.634z"
						/>
					<path style="fill:#3B455A;" d="M651.406,342.498c-0.079-3.165,0.366-6.367,0.998-9.252c1.086-4.959,6.936-7.187,12.001-7.539
						c10.937-0.759,21.492-5.717,32.174-1.89c6.106,2.188,14.305,2.713,19.83,5.797c2.307,1.288,4.147,3.298,5.58,5.518
						c4.965,7.691,4.978,18.287,0.032,25.991c-1.11,1.728-2.437,3.308-3.831,4.816c-2.886,3.121-6.338,6.977-10.304,8.13
						c-0.09-3.546,3.156-14.724,0.436-17.635c-4.316-4.618-14.091-3.022-19.454-1.894c-5.85,1.231-11.069,5.365-16.868,6.243
						c-4.173,0.631-9.495-1.422-13.041-3.583C653.404,353.811,651.549,348.215,651.406,342.498z"/>
				</g>
				<path style="fill:#FFFFFF;" d="M688.307,389.383l-36.654,146.618l-3.005,19.229l45.668,6.009c0,0-1.803-70.21-1.202-79.571
					c0.601-9.361,7.374-29.609,8.413-51.424c0.601-12.619,4.609-35.284,1.803-42.663L688.307,389.383z"/>
			</g>
		</g>
		<g>
			<g>
				<polygon style="fill:#EFD1B9;" points="792.637,308.25 790.879,294.694 796.64,293.69 799.899,302.707 802.404,300.967 
					802.495,312.751 796.648,314.603 				"/>
				<polygon style="fill:#CCD2D9;" points="878.22,380.059 826.744,365.673 803.802,308.75 792.386,313.019 804.577,386.228 
					863.602,417.987 				"/>
			</g>
			<g>
				<g>
					<polygon style="fill:#474EBB;" points="867.719,517.867 867.63,536.034 843.025,614.641 848.684,696.422 833.53,699.376 
						809.792,599.34 810.862,569.947 822.338,510.045 					"/>
					<polygon style="fill:#474EBB;" points="848.399,539.284 871.929,705.934 882.993,705.988 890.421,615.186 906.001,524.425 
											"/>
					<polygon style="fill:#282E3A;" points="836.026,701.465 824.41,713.64 827.718,719.856 851.62,708.526 847.272,699.443 					
						"/>
					<polygon style="fill:#282E3A;" points="872.116,709.817 857.826,718.704 859.476,725.55 885.451,720.55 883.51,710.669 					
						"/>
				</g>
				<g>
					<path style="fill:#EFD1B9;" d="M835.222,335.64c9.808,0.769,19.022-7.244,28.67-5.197c6.273,1.331,11.203,6.924,13.089,13.21
						c0.879,2.93,1.18,6.12,0.292,9.025c-0.576,1.885-1.631,3.582-2.87,5.088c-1.657,2.013-3.679,3.683-5.921,4.962
						c1.218,1.985,2.616,3.86,4.173,5.593c-4.534,1.711-9.067,3.422-13.601,5.133c-0.987-2.605-1.975-5.21-2.962-7.815
						c-1.36-0.082-2.715-0.282-4.042-0.634c-8.024-2.124-14.651-9.193-16.402-17.497C834.826,343.62,835.007,339.601,835.222,335.64
						z"/>
					<polygon style="fill:#3B455A;" points="837.685,338.612 868.042,335.155 873.818,358.359 882.419,351.601 878.188,313.658 
						835.375,312.529 816.782,323.314 817.514,334.217 834.038,345.457 					"/>
				</g>
				<path style="fill:#CCD2D9;" d="M849.276,376.996l36.106-14.12c0,0,16.661,35.655,30.973,86.683
					c14.312,51.028-5.293,121.699-5.293,121.699s-100.388-21.002-116.858-24.318l33.018-101.756L849.276,376.996z"/>
			</g>
			<g>
				<polygon style="fill:#EFD1B9;" points="781.988,315.089 781.147,301.445 786.962,300.831 789.607,310.047 792.223,308.48 
					791.52,320.243 785.561,321.697 				"/>
				<polygon style="fill:#CCD2D9;" points="862.535,392.503 812.146,374.68 793.094,316.34 781.416,319.829 788.644,393.694 
					845.394,429.36 				"/>
			</g>
		</g>
		<g>
			<g>
				<path style="fill:#EBB044;" d="M672.387,132.633C573.42,145.832,527.696,96.655,521.58,89.447c0,0-0.082-0.678-0.362-0.432
					c-0.237-0.287-0.426,0.368-0.426,0.368c-7.194,6.133-60.218,47.335-155.784,18.425c0,0-29.065,173.783,21.867,249.749
					c54.4,81.138,103.648,108.319,103.921,108.142c0.24,0.219,53.616-18.232,119.928-90.063
					C672.763,308.434,672.387,132.633,672.387,132.633z"/>
				<path style="fill:#EFB75E;" d="M656.702,149.483c-89.776,11.616-131.331-32.234-136.89-38.66c0,0-0.075-0.604-0.329-0.385
					c-0.215-0.256-0.386,0.327-0.386,0.327c-6.519,5.451-54.572,42.063-141.32,16.191c0,0-26.133,154.694,20.184,222.404
					c49.469,72.319,93.807,100.753,94.054,100.595c0.219,0.195,49.006-20.324,109.074-84.189
					C657.285,306.014,656.702,149.483,656.702,149.483z"/>
				<g style="opacity:0.02;">
					<path d="M517.822,126.118c0,0,0.179-0.611,0.405-0.343c0.265-0.229,0.344,0.403,0.344,0.403
						c5.71,6.6,47.673,50.877,137.949,41.13c0.852-15.912,0.815-25.918,0.815-25.918c-89.776,11.615-131.331-32.234-136.891-38.661
						c0,0-0.075-0.604-0.329-0.385c-0.215-0.256-0.386,0.327-0.386,0.327c-6.519,5.451-54.572,42.064-141.32,16.191
						c0,0-1.666,9.865-3.411,25.697C462.58,168.703,511.126,131.718,517.822,126.118z"/>
				</g>
			</g>
			<path style="opacity:0.34;fill:#FFFFFF;" d="M627.041,190.659c-67.851,9.049-107.012-26.904-111.205-31.846
				c0,0-0.056-0.465-0.248-0.296c-0.162-0.197-0.292,0.252-0.292,0.252c-4.932,4.205-48.924,33.356-114.443,13.535
				c0,0-12.289,118.241,22.63,170.323c37.296,55.627,71.06,74.263,71.247,74.141c0.165,0.15,36.759-12.5,82.222-61.746
				C619.486,308.95,627.041,190.659,627.041,190.659z"/>
		</g>
		<g>
			<polygon style="fill:#282E3A;" points="325.846,719.78 325.651,721.807 325.005,728.537 311.38,734.374 305.538,727.197 
				312.674,720.914 313.332,720.632 313.411,721.469 			"/>
			<path style="fill:#3B455A;" d="M326.539,719.686l-0.693,0.094l0.452-4.702l-12.966,5.555l-10.786-113.609l-1.328-5.367
				c10.193,0.149,22.306,0.301,34.512,0.397L326.539,719.686z"/>
			<polygon style="fill:#909497;" points="325.846,719.78 313.411,721.469 313.332,720.632 326.298,715.078 			"/>
			<path style="fill:#3B455A;" d="M381.021,601.995l-2.508,29.738l-25.153,77.1l-12.289-1.633l-0.2,1.507l-0.07-0.009l9.056-79.456
				l-7.755-27.142C356.367,602.187,370.318,602.183,381.021,601.995z"/>
			<polygon style="fill:#282E3A;" points="353.36,708.832 354.133,708.935 359.755,716.65 352.313,722.629 340.16,714.046 
				340.87,708.706 352.88,710.302 			"/>
			<polygon style="fill:#3E3D3B;" points="353.36,708.832 352.88,710.302 340.87,708.706 341.07,707.198 			"/>
			<path style="fill:#CCD2D9;" d="M350.028,416.381c-1.493-3.722-3.026-7.51-5.585-10.597c-3.835-4.628-9.967-7.304-15.955-6.791
				c-0.031,0.003-0.061,0.008-0.091,0.011c0.202-0.783,0.339-1.577,0.354-2.389c0.082-4.374-3.173-7.976-5.277-11.812
				c-0.196-0.358-0.382-0.736-0.555-1.131c-0.425-0.967-0.78-2.047-1.073-3.204l0.916,0.437c2.085,1.776,4.512,3,7.201,3.431
				l25.23,12.024l10.121,41.197l-2.608,1.14C354.73,435.557,352.892,423.518,350.028,416.381z"/>
			<path style="fill:#D0CFD1;" d="M295.786,429.084c-1.579,7.44-7.467,12.898-13.217,18.064c4.242-10.88,8.644-20.47,12.876-28.751
				C296.205,421.956,296.544,425.51,295.786,429.084z"/>
			<path style="fill:#CCD2D9;" d="M278.446,483.686c4.715,2.521,10.181,3.313,15.527,3.305c4.279-0.007,8.618-0.493,12.799,0.423
				c4.18,0.916,8.32,3.638,9.377,7.785c0.583,2.289,0.393,5.163,2.371,6.453c0.928,0.605,2.099,0.656,3.207,0.688
				c3.386,0.097,7.231,0.009,9.505-2.502c3.519-3.886,1.464-11.682,6.219-13.891c1.393-0.647,3.002-0.547,4.516-0.804
				c6.434-1.089,9.58-8.366,8.962-15.048c2.19,1.911,4.639,3.602,7.485,3.66c3.276,0.067,6.142-2.055,8.721-4.076
				c1.675-1.313,3.385-2.599,5.118-3.868l0.103,0.417l26.093,134.979c-3.108,0.396-9.34,0.645-17.427,0.788l1.853-21.968
				l-45.476,5.607l4.704,16.466c-2.12-0.013-4.248-0.028-6.372-0.045l1.301-16.646l-43.469-14.694l7.656,30.942
				c-15.627-0.228-26.739-0.449-26.739-0.449s-9.495-69.759-1.065-121.318C274.877,481.406,276.595,482.696,278.446,483.686z"/>
			<path style="fill:#D0CFD1;" d="M337.03,585.408l-1.301,16.646c-12.206-0.096-24.319-0.248-34.512-0.397l-7.656-30.942
				L337.03,585.408z"/>
			<path style="fill:#D0CFD1;" d="M382.874,580.026l-1.853,21.968c-10.703,0.189-24.654,0.192-38.919,0.104l-4.704-16.466
				L382.874,580.026z"/>
			<path style="fill:#E2D0B5;" d="M420.281,410.151c0.388-1.679,9.208-10.657,9.72-9.42c0.559,1.349,0.798,2.769,1.091,4.229
				c3.591-1.927,12.287-9.453,11.761-0.755c-0.228,3.769-6.838,10.283-10.147,11.426c-0.075,0.026-0.15,0.051-0.226,0.077
				l-12.146-2.116C420.025,412.641,419.956,411.56,420.281,410.151z"/>
			<path style="fill:#CCD2D9;" d="M420.181,413.565l0.155,0.027c0.577,1.768,2.003,3.082,3.381,5.176
				c2.889-1.085,5.838-2.054,8.764-3.06l3.155,0.55c-16.121,20.798-41.734,33.695-63.384,49.553l-6.941-28.255L420.181,413.565z"/>
			<path style="fill:#CCD2D9;" d="M358.413,473.755c-2.846-0.059-5.294-1.749-7.485-3.66c-0.128-1.385-0.414-2.744-0.87-4.017
				c-2.658-7.416-8.818-12.919-13.482-19.266c-9.107-12.393-15.265-28.952-9.665-43.619c0.527-1.38,1.118-2.766,1.485-4.189
				c0.031-0.003,0.061-0.008,0.091-0.011c5.988-0.513,12.12,2.163,15.955,6.791c2.559,3.088,4.091,6.876,5.585,10.597
				c2.864,7.137,4.702,19.176,12.676,22.315l2.608-1.14l6.941,28.255c-1.733,1.269-3.443,2.555-5.118,3.868
				C364.555,471.7,361.689,473.822,358.413,473.755z"/>
			<path style="fill:#D0CFD1;" d="M420.335,413.592l12.146,2.116c-2.926,1.006-5.876,1.975-8.764,3.06
				C422.338,416.674,420.913,415.36,420.335,413.592z"/>
			<path style="fill:#E5B6A8;" d="M321.717,379.941c-2.366-10.245,0.198-26.433,7.048-32.473c2.693-2.375,5.771-2.806,9.203-2.831
				c1.622-0.012,2.164,0.407,3.001,0.26c2.553,3.284,4.264,7.292,3.95,11.082c-0.264,3.19-2.102,5.622-2.249,9.048
				c-0.292,6.236-9.209,12.496-5.783,18.689c-2.448,0.798-4.771,0.964-6.927,0.618l-7.201-3.431
				C322.403,380.598,322.055,380.277,321.717,379.941z"/>
			<path style="fill:#E5B6A8;" d="M329.961,384.335c-2.688-0.431-5.116-1.655-7.201-3.431L329.961,384.335z"/>
			<path style="fill:#E5B6A8;" d="M342.671,365.027c0.147-3.426,1.985-5.858,2.249-9.048c0.314-3.79-1.397-7.798-3.95-11.082
				c0.376-0.066,0.811-0.246,1.43-0.631c1.229-0.765,2.324-2.766,2.899-4.398c3.183,2.013,5.499,5.649,6.137,11.186
				c0.694,6.019,0.683,12.369-1.38,18.391c-2.063,6.023-6.466,11.685-12.177,13.92c-0.333,0.13-0.663,0.245-0.992,0.352
				C333.462,377.523,342.379,371.263,342.671,365.027z"/>
			<path style="fill:#3B455A;" d="M268.953,471.447c0.546,3.201,2.195,6.095,4.46,8.442c0.18-1.104,0.369-2.2,0.566-3.287
				c-0.197,1.087-0.386,2.182-0.566,3.287c1.464,1.517,3.182,2.807,5.033,3.796c4.715,2.521,10.181,3.313,15.527,3.305
				c4.28-0.007,8.618-0.493,12.799,0.423c4.18,0.916,8.32,3.638,9.377,7.785c0.583,2.289,0.393,5.163,2.371,6.453
				c0.928,0.605,2.1,0.656,3.207,0.688c3.386,0.097,7.231,0.009,9.504-2.502c3.519-3.887,1.464-11.682,6.219-13.892
				c1.393-0.647,3.002-0.547,4.516-0.804c6.434-1.089,9.58-8.367,8.962-15.048c-0.128-1.385-0.414-2.744-0.87-4.017
				c-2.658-7.416-8.818-12.919-13.482-19.266c-9.107-12.393-15.265-28.952-9.665-43.618c0.527-1.38,1.118-2.766,1.486-4.189
				c0.202-0.783,0.339-1.577,0.354-2.389c0.081-4.374-3.173-7.976-5.278-11.812c-0.196-0.358-0.381-0.736-0.555-1.131
				c-0.425-0.967-0.78-2.047-1.073-3.204c-0.044-0.174-0.086-0.349-0.127-0.526c-6.459-6.442-9.048-18.41-4.797-27.354
				c0.242-0.508,0.498-1.006,0.769-1.492c-0.271,0.486-0.527,0.984-0.769,1.492c-4.252,8.944-1.663,20.911,4.797,27.354
				c-2.365-10.245,0.198-26.433,7.048-32.473c2.693-2.375,5.771-2.805,9.203-2.831c1.622-0.012,2.164,0.407,3.001,0.26
				c0.376-0.066,0.811-0.246,1.43-0.631c1.229-0.765,2.325-2.766,2.9-4.398c3.183,2.013,5.499,5.649,6.137,11.186
				c0.694,6.019,0.683,12.369-1.38,18.391c-2.063,6.023-6.466,11.685-12.178,13.92c-0.333,0.13-0.663,0.245-0.991,0.352
				c0.284,0.513,0.643,1.027,1.108,1.539c3.127,3.44,8.146,4.24,12.757,4.835c0.559,0.072,1.146,0.141,1.671-0.063
				c0.865-0.337,1.31-1.338,1.317-2.267c0.007-0.928-0.326-1.819-0.583-2.712c-2.68-9.331,2.068-19.989,2.86-29.397
				c0.79-9.389-1.148-19.605-8.684-25.953c-1.279,0.351-2.521,0.832-3.706,1.425c-0.118-0.157-0.239-0.312-0.365-0.462
				c-10.908-13.099-26.31-1.901-34.595,8.102c-6.829,8.245-12.523,17.713-15.134,28.176c-2.442,9.785-3.257,24.165-2.224,34.168
				c0.603,5.84,2.912,11.57,4.133,17.289c0.76,3.559,1.099,7.113,0.341,10.687c-1.579,7.44-7.468,12.898-13.217,18.064
				c-0.523,1.342-1.045,2.703-1.563,4.084c-0.518,1.381-1.033,2.781-1.544,4.202c-0.329,0.915-0.648,1.846-0.957,2.791
				c0.309-0.945,0.628-1.876,0.957-2.791c0.511-1.421,1.026-2.821,1.544-4.202c0.518-1.38,1.039-2.741,1.563-4.084
				c-0.795,0.715-1.588,1.424-2.366,2.132C273.798,455.107,267.498,462.912,268.953,471.447z M326.31,341.796
				c0.85-0.562,1.721-1.068,2.606-1.514C328.031,340.728,327.16,341.234,326.31,341.796z"/>
		</g>
		<g>
			<polygon style="fill:#FFFFFF;" points="241.781,310.85 89.691,328.744 77.308,223.502 148.456,172.931 229.399,205.607 			"/>
			<path style="fill:#EBB044;" d="M251.924,207.53c-11.485-5.394-22.971-10.788-34.456-16.182
				c-18.573-8.723-37.146-17.445-55.719-26.168c-4.488-2.108-8.947-4.359-13.482-6.332c-2.872-1.249-5.584-0.824-7.98,1.113
				c-1.531,1.238-3.027,2.532-4.539,3.797c-14.593,12.208-29.186,24.415-43.78,36.623c-11.839,9.904-23.845,19.604-35.534,29.726
				c-0.194,0.168-0.393,0.328-0.589,0.493c-2.968,2.483-3.537,7.486-1.232,10.867c2.313,3.392,6.788,4.156,9.769,1.662
				c9.603-8.033,19.206-16.067,28.81-24.1c15.233-12.743,30.467-25.487,45.701-38.23c2.463-2.06,4.926-4.12,7.388-6.18
				c10.412,4.89,20.824,9.78,31.236,14.67c18.719,8.791,37.437,17.582,56.156,26.373c4.285,2.012,8.57,4.025,12.855,6.037
				c3.497,1.643,7.637-0.001,9.117-3.884C257.081,214.044,255.432,209.178,251.924,207.53z"/>
			
				<rect x="125.259" y="248.157" transform="matrix(0.9931 -0.1168 0.1168 0.9931 -32.1468 18.7606)" style="fill:#CCD2D9;" width="37.34" height="70.785"/>
		</g>
		<g>
			<g>
				<path style="fill:#D34E4E;" d="M648.782,436.763c-15.237-1.506-34.577,6.307-39.383,19.256
					c-4.357-13.107-27.628-21.528-42.908-20.548c-40.323,2.586-54.726,47.255-38.175,77.746
					c8.908,16.411,21.868,30.849,36.054,43.857c11.88,10.893,42.605,34.091,42.701,34.016c0.094,0.079,31.6-22.047,43.848-32.524
					c14.626-12.511,28.075-26.494,37.544-42.589C706.056,486.075,688.992,440.737,648.782,436.763z"/>
			</g>
			<polygon style="fill:#FFFFFF;" points="641.998,500.919 617.015,500.919 617.015,475.936 599.927,475.936 599.927,500.919 
				574.943,500.919 574.943,518.007 599.927,518.007 599.927,542.991 617.015,542.991 617.015,518.007 641.998,518.007 			"/>
		</g>
		<g>
			<polygon style="fill:#EFD1B9;" points="685.698,480.347 679.359,486.113 671.818,485.637 670.905,487.184 672.764,488.384 
				666.392,489.781 663.131,493.953 665.125,500.711 671.043,504.951 677.543,502.259 682.633,495.62 691.652,488.103 			"/>
			<path style="fill:#474EBB;" d="M679.626,483.77c10.278-8.014,20.556-16.027,30.835-24.041c2.767-2.157,5.912-3.796,8.668-5.977
				c4.03-3.188,5.096-4.143,3.739-8.763c-3.931-13.388-12.274-25.313-16.072-38.534c4.343-2.55,8.239-5.654,12.914-7.734
				c7.633-3.397,9.38,2.126,12.487,7.743c3.685,6.663,7.175,13.442,10.41,20.335c2.681,5.712,16.027,29.693,8.448,35.391
				c-5.423,4.103-64.722,35.36-64.121,36.594C686.69,498.287,679.626,483.77,679.626,483.77z"/>
		</g>
		<g>
			<g>
				<polygon style="fill:#C48270;" points="95.956,317.856 93.991,304.582 99.628,303.494 102.986,312.287 105.414,310.535 
					105.712,322.1 100.005,324.021 				"/>
			</g>
			<g>
				<polygon style="fill:#474EBB;" points="181.225,386.829 130.446,373.617 106.924,318.15 95.794,322.541 109.051,394.184 
					167.546,424.315 				"/>
			</g>
		</g>
		<g>
			<g>
				<g>
					<polygon style="fill:#282E3A;" points="135.4,718.212 134.724,724.864 147.351,732.867 154.678,726.892 148.703,719.565 
						136.076,711.561 					"/>
					<polygon style="fill:#3B455A;" points="134.911,515.304 132.858,535.505 150.895,625.779 134.922,715.998 147.847,719.978 
						189.641,612.71 191.933,579.916 186.272,511.984 					"/>
				</g>
				<g>
					<polygon style="fill:#3B455A;" points="232.871,522.181 233.285,607.522 216.466,717.439 204.101,717.356 196.973,615.782 
						180.734,514.147 					"/>
					<polygon style="fill:#282E3A;" points="204.138,722.571 217.464,729.346 224.194,722.705 217.554,715.975 204.183,715.885 
											"/>
				</g>
			</g>
			<g>
				<path style="fill:#474EBB;" d="M243.29,509.657c-8.92-27.632-9.87-56.647-12.465-85.431c-0.769-8.493-1.586-17.173-5.121-24.933
					c-4.059-8.911-10.771-13.614-18.589-16.183c-9.951-3.27-21.695-3.083-32.042-3.713c-9.817-0.31-18.503,36.597-28.517,54.487
					c-6.137,10.964-12.461,20.661-16.601,32.621c-3.973,11.478-7.788,23.158-10.1,35.1c-3.49,18.031-12.416,30.621-3.891,36.755
					c0.782,0.258,1.534,0.514,2.248,0.77c13.984,5.009,28.452,8.717,43.185,10.661c13.07,1.725,26.343,2.039,39.467,0.745
					c17.964-1.771,35.369-4.308,51.206-13.677C249.144,527.792,246.217,518.724,243.29,509.657z"/>
			</g>
			<g>
				<path style="fill:#C48270;" d="M170.27,351.928c5.593-16.884,30.234-22.764,35.962-3.141c1.721,5.897,2.758,12.153,1.587,18.183
					c-1.171,6.031-4.856,11.817-10.48,14.289c-0.032,0.014-0.064,0.026-0.096,0.04c0.22,1.565,0.439,3.13,0.659,4.695
					c0.047,0.336,0.087,0.707-0.102,0.989c-0.215,0.321-0.643,0.405-1.025,0.462c-1.868,0.279-3.736,0.557-5.605,0.836
					c-0.926,0.138-1.891,0.274-2.782-0.012c-1.952-0.625-2.764-2.964-2.849-5.012c-0.02-0.49-0.016-0.985-0.008-1.48
					C174.472,377.991,166.614,362.966,170.27,351.928z"/>
				<g>
					<path style="fill:#3B455A;" d="M200.29,323.098c4.512-0.671,8.354,3.704,12.517,6.001c3.463,1.911,7.39,2.418,10.979,4.002
						c3.59,1.584,7.118,4.89,7.193,9.029c3.637-1.893,7.578-3.835,11.654-3.049c4.076,0.786,7.86,5.652,6.236,9.663
						c-1.454,3.592-6.14,4.438-7.699,7.974c-2.466,5.593,4.201,14.279-0.349,17.989c-1.094,0.892-2.582,1.107-3.657,2.025
						c-1.335,1.141-1.764,3.099-2.358,4.84c-2.694,7.892-10.65,13.048-18.508,11.993c-4.886-2.289-8.782-7.018-10.528-12.433
						c-2.104-6.526,1.387-8.804,1.977-14.93c0.644-6.695-1.485-13.785-5.7-18.984c-2.743-3.383-6.668-6.3-10.815-6.695
						c-1.686-0.161-1.156,1.246-3.052-0.059c-0.814-0.56-1.925-2.678-2.157-3.693C190.561,333.121,194.354,323.98,200.29,323.098z"
						/>
					<path style="fill:#3B455A;" d="M151.493,331.778c-2.328,0.648-4.855,0.553-7.072,1.525c-3.331,1.46-3.129,4.917-4.072,7.92
						c-1.044,3.325-2.561,7.788-4.754,10.374c-1.58,1.863-3.792,2.926-5.717,4.363c-1.925,1.438-3.694,3.561-3.654,6.152
						c0.039,2.456,1.69,4.661,1.932,7.113c0.294,3.656-0.338,5.529,0.789,9.266c0.582,1.928,1.233,3.97,2.68,5.285
						c1.907,1.733,4.624,1.699,7.01,1.301c2.386-0.399,4.852-1.061,7.204-0.269c5.102,1.716,4.15,6.876,5.508,11.201
						c2.067,6.581,9.698,10.423,15.536,8.082c4.95-1.984,7.815-7.732,7.592-13.406c-0.112-2.841-1.243-5.488-1.325-8.331
						c-0.079-2.742,1.467-6.54-1.019-8.716c-0.606-0.53-1.382-0.81-1.926-1.414c-0.44-0.488-0.684-1.143-0.837-1.797
						c-0.529-2.266-0.031-4.738,1.306-6.473c0.96-1.247,2.336-2.158,2.925-3.663c0.674-1.724,0.141-3.74,0.027-5.645
						c-0.276-4.605,2.243-9.122,6.079-10.9c2.528-1.172,4.806-1.863,7.016-3.646c0.336-0.271,5.364-4.714,5.494-3.754
						c-0.226-1.671-1.201-3.133-2.189-4.474c-1.625-2.204-3.429-4.351-5.718-5.671c-7.4-4.269-7.757,5.652-13.697,4.347
						c-1.433-0.315-2.512-1.628-3.801-2.412c-2.436-1.481-5.428-0.952-7.92,0.158C156.397,329.404,154.115,331.048,151.493,331.778z
						"/>
				</g>
			</g>
		</g>
	</g>
</g>
</svg>
